<?xml version="1.0" encoding="utf-8" ?><svg xmlns="http://www.w3.org/2000/svg" xmlns:xlink="http://www.w3.org/1999/xlink" width="1024" height="1024" viewBox="0 0 1024 1024"><path fill="#151315" d="M0 0L1024 0L1024 1024L0 1024L0 0Z"/><defs><linearGradient id="gradient_0" gradientUnits="userSpaceOnUse" x1="592.16449" y1="677.47583" x2="433.23047" y2="347.5014"><stop offset="0" stop-color="#AC824C"/><stop offset="1" stop-color="#9A9999"/></linearGradient></defs><path fill="url(#gradient_0)" d="M509.624 329.043C610.779 327.196 694.417 407.426 696.776 508.571C699.136 609.715 619.33 693.758 518.199 696.63C416.341 699.523 331.561 619.017 329.184 517.146C326.808 415.274 407.742 330.903 509.624 329.043Z"/><path d="M504.043 366.399C585 361.729 654.402 423.602 659.018 504.563C663.633 585.524 601.714 654.884 520.75 659.446C439.863 664.003 370.582 602.155 365.971 521.271C361.359 440.386 423.161 371.064 504.043 366.399Z"/><path fill="#A88458" d="M506.648 368.632C586.259 365.41 653.439 427.272 656.78 506.878C660.12 586.484 598.36 653.756 518.759 657.216C438.989 660.684 371.542 598.764 368.195 518.988C364.847 439.213 426.868 371.86 506.648 368.632Z"/><path fill="#151315" d="M507.706 372.337C585.335 369.669 650.457 430.38 653.23 508.006C656.003 585.632 595.38 650.836 517.758 653.715C439.987 656.599 374.631 595.834 371.852 518.059C369.073 440.284 429.927 375.01 507.706 372.337Z"/><path fill="#EAE0D7" d="M472.006 465.256C493.727 461.141 532.38 462.676 554.402 465.208C560.552 471.95 563.092 474.154 565.932 483.6C567.218 487.877 568.581 499.558 566.587 503.187C563.166 504.521 561.912 502.536 560.14 499.75C556.33 493.755 556.293 489.481 557.811 482.821L556.721 481.401C555.585 485.739 553.162 493.685 555.461 497.604C557.919 501.794 561.51 503.583 564.137 507.923C564.06 511.656 563.836 516.711 564 520.384L563.672 520.949C565.747 526.791 572.737 529.863 569.649 536.311C567.264 541.292 562.077 546.349 556.995 548.608C553.983 549.886 548.351 546.807 545.178 545.577L544.808 546.202C542.686 548.92 540.349 551.523 539.607 554.969C539.276 556.508 539.39 559.801 538.55 560.356L537.28 560.063C536.665 561.099 536.264 561.832 535.732 562.913C534.69 561.991 534.516 561.621 533.733 560.488L532.769 560.426C531.889 561.402 529.295 564.867 528.703 565.03C527.89 563.028 528.125 562.702 526.681 561.52C524.05 562.778 523.783 566.358 522.055 567.376C521.135 565.486 520.391 563.389 518.76 562.16C516.281 562.405 515.278 565.951 514.218 568.136C513.611 565.791 513.491 564.355 511.851 562.604C508.585 561.55 508.988 565.596 506.017 566.537C504.84 564.468 504.649 563.216 502.822 562.496C501.056 563.204 500.615 563.708 499.185 564.912L498.406 564.833C497.489 563.005 497.393 561.884 495.923 561.076C493.722 561.735 493.562 562.468 492.11 564.478C491.608 562.572 491.524 560.867 490.27 559.74C489.223 560.452 489.619 560.035 489.007 560.918C488.851 561.262 488.644 562.115 488.227 562.224C487.824 561.861 487.828 559.028 487.78 558.383C486.065 553.192 486.108 551.185 482.299 546.76L482.54 546.121C487.785 545.962 488.713 548.553 491.203 552.414L491.594 551.994C489.231 540.367 477.335 546.772 470.94 549.676C467.187 548.073 464.863 546.756 462.035 543.776C454.155 535.473 455.743 530.48 462.499 522.954C462.793 518.753 461.981 513.861 462.544 510.051C463.329 504.735 469.925 501.577 471.943 496.602C473.287 493.291 470.642 482.282 469.368 479.616C467.8 481.171 471.936 494.303 467.922 497.563C466.262 498.912 463.263 505.301 460.008 502.257C459.35 500.386 459.221 498.923 459.317 496.969C460.08 481.489 460.972 476.017 472.006 465.256Z"/><path fill="#332E2D" d="M544.808 546.202C538.102 546.254 539.195 549.945 536.06 551.813C536.037 551.807 535.804 551.812 535.816 551.748C536.632 547.667 541.13 544.833 545.178 545.577L544.808 546.202Z"/><path fill="#332E2D" d="M564 520.384L563.672 520.949C561.28 522.546 560.659 527.006 559.337 527.439C558.643 526.991 560.853 520.74 564 520.384Z"/><path fill="#EAE0D7" d="M487.78 558.383C487.946 558.151 488.008 557.95 488.247 557.856C488.701 557.937 488.949 560.437 489.007 560.918C488.851 561.262 488.644 562.115 488.227 562.224C487.824 561.861 487.828 559.028 487.78 558.383Z"/><path fill="#332E2D" d="M556.721 481.401C556.889 481.064 557.315 479.934 557.766 479.768C558.304 479.994 557.859 482.414 557.811 482.821L556.721 481.401Z"/><path d="M518.634 513.828C515.597 511.153 512.668 510.01 513.586 505.506C513.921 503.859 520.209 495.874 521.179 496.08C521.79 497.014 513.538 505.078 514.754 507.595C515.76 509.678 519.139 510.647 520.467 512.342L520.793 512.388C533.272 514.267 538.449 501.57 552.261 504.924C554.64 505.501 554.314 505.208 556.481 506.765C557.511 507.318 558.545 507.709 559.131 508.784L559.014 509.049C558.117 509.305 557.509 508.847 557.028 509.286C556.987 509.609 557.049 512.023 556.957 513.071L556.968 514.078C557.251 528.504 556.279 529.913 541.249 531.577C535.447 532.219 531.812 531.193 527.135 527.516C521.079 522.94 523.782 517.972 520.363 513.458C520.072 517.416 520.948 521.25 522.741 524.772L521.944 525.883C519.873 520.91 519.654 519.006 518.634 513.828Z"/><path fill="#EFDFDA" d="M556.481 506.765C557.511 507.318 558.545 507.709 559.131 508.784L559.014 509.049C558.117 509.305 557.509 508.847 557.028 509.286C556.987 509.609 557.049 512.023 556.957 513.071C556.386 510.332 556.497 509.618 556.481 506.765Z"/><path d="M504.371 512.889C506.699 510.281 512.143 511.08 510.839 505.244C510.554 503.969 511.749 503.508 511.918 504.285C513.464 511.385 512.434 510.303 507.32 513.561L507.021 513.748C506.896 522.401 507.246 521.814 501.341 529.864C502.618 526.765 503.959 522.994 506.109 520.486C505.584 520.295 505.136 520.13 504.617 519.916C498.265 530.599 491.928 532.756 480.252 531.391C470 530.193 470.054 528.987 469.856 518.843C469.767 514.307 470.509 510.954 471.057 506.487L470.536 506.986C470.225 507.279 469.854 507.576 469.589 507.919C470.438 507.512 473.343 505.27 474.644 504.499C483.484 504.399 485.372 505.441 493.127 509.724C496.628 511.658 500.527 513.988 504.371 512.889Z"/><path fill="#EAE0D7" d="M504.612 513.303C504.776 513.263 505.84 512.919 506.211 513.029C506.256 513.042 506.29 513.079 506.33 513.105C506.452 513.702 505.833 514.527 505.725 514.971C505.354 516.489 506.047 518.32 506.109 520.486C505.584 520.295 505.136 520.13 504.617 519.916C504.074 518.103 503.211 515.873 504.192 514.131L504.612 513.303Z"/><path d="M516.476 526.926C518.405 528.726 517.662 531.547 519.035 533.5C522.36 538.067 528.575 549.373 519.194 551.255C513.642 552.369 514.033 542.475 513.682 542.18C512.963 542.364 512.513 545.726 512.368 546.374C507.192 559.425 498.715 547.675 503.913 539.214C506.476 535.041 507.527 532.676 509.149 528.06C509.799 526.21 512.432 528.741 513.026 528.998C513.199 529.058 516.065 527.178 516.476 526.926Z"/><path d="M536.381 537.769C537.829 537.598 542.4 537.261 543.352 538.419C543.353 538.649 543.371 538.556 543.315 538.71L542.892 538.334L543.309 538.643C542.25 539.154 541.627 538.905 540.436 538.813C537.836 539.124 535.344 539.712 532.991 540.89C532.649 541.062 531.59 541.81 531.194 541.438C531.003 539.649 535.167 538.122 536.381 537.769Z"/><path fill="#484743" d="M536.381 537.769C537.829 537.598 542.4 537.261 543.352 538.419C543.353 538.649 543.371 538.556 543.315 538.71L542.892 538.334L543.309 538.643C542.25 539.154 541.627 538.905 540.436 538.813C540.517 538.666 540.664 538.474 540.639 538.325C540.24 538.069 536.946 537.843 536.381 537.769Z"/><path d="M486.871 537.536C489.502 537.618 497.398 540.824 495.657 542.534C495.12 542.481 494.693 541.977 494.25 541.606C489.798 538.705 488.456 539.378 483.409 538.849C483.345 538.842 483.335 538.801 483.306 538.744C483.672 538.243 486.303 537.685 486.871 537.536Z"/><path fill="#9D9C9B" d="M523.282 526.346L524.423 527.653C524.902 528.15 529.05 531.516 528.11 532.049C527.344 532.04 523.997 529.001 523.404 528.387L523.07 528.036C522.845 527.578 522.634 527.142 522.392 526.692L523.282 526.346Z"/><path fill="#332E2D" d="M523.282 526.346L524.423 527.653L523.07 528.036C522.845 527.578 522.634 527.142 522.392 526.692L523.282 526.346Z"/><path fill="#332E2D" d="M464.196 520.339C464.553 520.471 464.912 520.597 465.273 520.715C467.88 521.589 467.043 523.462 466.768 526.105C464.667 524.385 467.673 523.536 464.196 520.339Z"/><path fill="#332E2D" d="M522.741 524.772L523.282 526.346L522.392 526.692L521.944 525.883L522.741 524.772Z"/><path fill="#EAE0D7" d="M514.18 405.788C517.962 408.244 531.141 434.626 535.024 440.734C537.588 438.417 558.785 419.181 559.793 418.772C561.407 422.044 556.965 448.104 556.387 454.719C545.156 452.4 523.094 451.925 511.678 451.852C498.614 452.052 483.352 452.585 470.428 454.581C469.23 445.4 466.473 423.993 466.337 415.767C474.272 424.52 482.559 432.947 491.176 441.028C496.87 431.673 507.55 413.836 514.18 405.788Z"/><path fill="#532A5A" d="M495.32 375.691C497.139 377.045 495.541 392.506 496.889 395.269C497.586 396.699 500.255 398.084 500.705 399.106C503.244 404.878 499.952 415.485 498.386 420.526C492.907 418.583 490.834 417.864 486.618 413.842C485.345 418.785 484.591 423.965 483.223 429.216C478.783 424.835 474.272 420.528 469.69 416.296C472.546 412.854 475.224 407.129 470.49 403.917C468.513 402.592 466.086 402.121 463.757 402.613C460.073 403.362 456.131 406.999 457.289 411.141C458.302 414.765 460.883 416.428 463.863 418.339L464.88 427.379C465.555 433.004 466.032 438.65 466.311 444.308C457.152 439.849 447.759 431.874 444.17 422.027C443.014 418.856 444.184 416.994 443.239 415.015C439.283 414.222 433.437 405.093 430.855 401.475C453.68 386.808 467.86 379.893 495.32 375.691Z"/><path fill="#532A5A" d="M528.955 375.804C554.078 379.313 573.647 387.851 594.702 401.805C590.722 406.676 586.391 412.336 581.537 416.231C580.721 416.886 580.726 416.892 580.222 417.826C582.487 417.686 581.67 417.213 583.858 418.097C583.782 419.345 583.58 420.267 583.552 421.463L583.223 421.633C582.948 421.572 582.649 421.102 582.317 420.898C580.682 420.911 582.056 422.795 581.377 423.218C581.276 423.207 581.174 423.196 581.072 423.184C576.496 431.785 568.665 439.983 560.353 444.969C560.741 436.58 562.819 427.527 563.175 418.26C565.609 417.018 570.077 414.113 570.57 411.476C573.019 398.378 545.488 399.496 558.068 416.582C553.098 421.853 548.401 425.519 542.798 430.107C541.148 424.612 540.185 419.735 539.025 414.127C535.343 416.344 531.445 419.309 527.927 421.855C522.262 412.017 524.477 409.233 523.88 398.284L523.881 397.913C525.656 397.449 526.95 397.353 528.14 396.019C528.925 392.456 528.581 380.627 528.955 375.804Z"/><path d="M580.222 417.826C582.487 417.686 581.67 417.213 583.858 418.097C583.782 419.345 583.58 420.267 583.552 421.463L583.223 421.633C582.948 421.572 582.649 421.102 582.317 420.898C580.682 420.911 582.056 422.795 581.377 423.218C581.276 423.207 581.174 423.196 581.072 423.184C580.987 421.18 580.279 420.004 580.222 417.826Z"/><path fill="#484743" d="M582.008 419.107C582.082 419.107 582.156 419.107 582.23 419.107C582.327 419.257 582.277 419.143 582.335 419.533C582.06 419.519 582.142 419.55 582.033 419.483C581.98 419.337 582.002 419.443 582.008 419.107Z"/><path fill="#EAE0D7" d="M549.19 552.59C550.091 550.619 550.291 549.903 552.393 550.053C553.91 551.693 552.152 553.979 551.708 556.409C550.295 564.143 551.46 571.72 553.669 579.168C545.405 585.319 544.28 591.299 543.811 601.032C539.825 606.92 532.675 612.939 526.131 615.836C514.724 612.145 511.455 611.918 499.719 615.816C495.266 613.612 486.406 606.336 482.928 602.595C480.376 589.525 483.669 590.219 472.283 579.132C476.318 568.901 476.337 562.005 473.754 551.522L474.195 550.895C475.573 550.779 475.475 550.762 476.671 551.459C477.086 551.513 477.606 551.615 478.041 551.585C479.603 551.936 479.036 551.523 479.885 552.733C480.514 558.861 485.499 592.302 488.354 594.993C488.781 593.122 488.647 591.651 488.616 589.741C491.801 591.128 491.172 596.114 493.604 597.796C492.756 590.945 495.169 593.258 495.778 597.982L496.848 596.341L497.449 596.387C498.184 597.905 498.39 598.678 499.747 599.69C502.244 598.838 500.876 596.51 502.6 596.934C503.406 598.909 503.888 600.559 505.297 602.136L506.351 602.475C508.069 601.075 508.37 598.344 507.158 596.55L508.759 595.869C509.169 598.345 510.176 602.701 513.193 602.851C514.84 601.724 515.624 599.767 516.598 597.964L517.024 598.037C517.7 600.052 517.753 600.569 519.03 602.196C522.476 603.102 523.111 599.319 523.654 596.956L524.202 596.619C524.779 598.312 524.694 599.213 525.856 599.844C527.521 598.468 529.077 595.938 530.359 594.101L530.825 594.051C531.507 595.507 531.796 596.43 532.983 597.529L533.95 597.403C535.892 595.613 534.624 592.548 536.91 591.088C537.667 592.337 537.941 592.892 538.982 593.962C541.776 592.199 539.971 585.024 540.307 584.404C544.609 576.484 544.265 563.168 546.537 554.877C546.68 554.338 547.485 551.508 548.169 551.416C548.166 551.546 548.162 551.676 548.159 551.806L549.19 552.59Z"/><path fill="#332E2D" d="M546.537 554.877C546.68 554.338 547.485 551.508 548.169 551.416C548.166 551.546 548.162 551.676 548.159 551.806L549.19 552.59C548.721 558.579 549.258 578.933 543.673 582.819L543.839 582.789L543.753 582.839L543.669 582.816C543.539 582.423 545.659 577.031 545.948 575.969C547.594 569.921 548.004 562.972 547.981 556.73C547.523 555.787 547.315 555.68 546.537 554.877Z"/><path fill="#EAE0D7" d="M546.537 554.877C546.68 554.338 547.485 551.508 548.169 551.416C548.166 551.546 548.162 551.676 548.159 551.806C548.048 553.568 547.984 554.965 547.981 556.73C547.523 555.787 547.315 555.68 546.537 554.877Z"/><path fill="#332E2D" d="M476.671 551.459C477.086 551.513 477.606 551.615 478.041 551.585C477.747 557.546 478.906 566.07 479.315 572.226C479.416 573.737 481.815 579.65 481.782 579.753C480.804 580.119 478.97 576.099 478.812 575.402C477.051 567.627 477.405 559.451 476.671 551.459Z"/><path fill="#EFDFDA" d="M493.604 597.796C492.756 590.945 495.169 593.258 495.778 597.982C494.608 598.281 494.774 598.311 493.604 597.796Z"/><path fill="#532A5A" d="M618.091 424.391C621.218 425.942 629.834 439.324 632.037 442.86C638.53 453.28 643.447 465.747 646.627 477.626L626.335 467.7C613.617 461.155 599.448 454.601 586.462 448.368C592.001 440.031 594.402 440.364 602.797 436.415C606.364 434.737 614.317 427.376 618.091 424.391Z"/><path fill="#532A5A" d="M645.183 554.074C635.125 548.161 623.783 543.382 613.336 538.19C607.559 535.881 608.851 523.211 613.983 522.529C618.817 521.887 629.153 521.287 629.469 526.246C629.499 526.707 634.282 526.857 635.516 526.875C638.052 526.911 641.458 527 644.298 527.097C645.995 527.309 649.383 527.037 650.175 528.368C649.44 536.933 647.07 545.677 645.183 554.074Z"/><path fill="#E54B47" d="M644.298 527.097C645.995 527.309 649.383 527.037 650.175 528.368C645.763 532.417 646.376 533.743 645.849 539.111C643.454 538.584 641.053 538.085 638.647 537.612C640.243 534.488 643.222 529.777 644.298 527.097Z"/><path fill="#532A5A" d="M407 423.865C409.659 425.517 418.717 434.977 421.223 437.63C422.258 437.811 426.697 438.257 427.067 439.321C427.187 439.124 399.232 455.154 396.745 456.577C391.668 459.131 387.926 461.475 383.106 464.042C390.343 447.484 395.567 437.927 407 423.865Z"/><path fill="#A88458" d="M441.364 421.952C442.329 422.985 444.033 426.914 445.122 428.692C449.462 435.786 455.742 441.49 463.219 445.129C457.909 449.532 452.613 453.579 447.394 458.144C445.919 457.619 444.914 454.755 444.242 453.357C440.762 446.121 433.973 439.044 426.456 435.728L425.716 435.382C431.26 431.517 436.44 426.585 441.364 421.952Z"/><path fill="#EAE0D7" d="M508.147 454.231C516.534 454.016 548.967 454.869 555.499 457.283C556.29 458.517 556.043 461.249 555.066 462.351C551.768 462.607 544.815 461.754 541.222 461.467C533.72 460.796 526.194 460.425 518.662 460.353C504.057 459.665 485.634 461.196 471.206 462.716L470.341 456.803C482.824 454.99 495.557 454.521 508.147 454.231Z"/><path fill="#A88458" d="M578.672 566.413L578.865 566.799C584.448 578.161 587.269 583.168 598.413 590.281C593.342 594.246 588.92 597.652 584.089 601.938C582.669 599.178 579.14 591.541 576.868 589.803C576.175 589.616 574.597 588.603 574.405 588.895C573.798 589.169 572.813 588.208 573.103 587.596C573.147 587.555 573.19 587.513 573.234 587.472C573.194 587.134 572.425 585.975 572.203 585.163C570.302 582.652 564.759 580.278 561.947 579.016C567.622 575.526 573.538 570.693 578.672 566.413Z"/><path d="M572.203 585.163C574.35 586.787 575.241 587.686 576.868 589.803C576.175 589.616 574.597 588.603 574.405 588.895C573.798 589.169 572.813 588.208 573.103 587.596C573.147 587.555 573.19 587.513 573.234 587.472C573.194 587.134 572.425 585.975 572.203 585.163Z"/><path fill="#A88458" d="M424.257 502.055C424.774 501.919 425.013 501.705 425.429 502.031C426.08 503.62 425.366 519.533 425.16 522.147C415.167 519.557 408.345 518.888 398.142 521.296C397.947 521.319 397.236 521.418 397.206 521.257C396.574 517.9 396.871 505.211 396.883 502.266C408.029 505.196 413.281 505.121 424.257 502.055Z"/><path fill="#A88458" d="M450.682 499.19C451.226 499.086 452.189 498.955 452.214 499.238C452.634 503.867 452.412 521.301 452.379 524.809C446.937 523.789 441.867 522.76 436.304 522.456C435.506 522.466 431.69 522.685 431.221 522.268C431.142 522.02 431.389 502.899 431.377 500.934C438.852 500.571 443.311 500.236 450.682 499.19Z"/><path fill="#A88458" d="M600.481 501.121C613.253 505.198 615.754 504.556 628.879 501.921C628.783 508.637 628.637 515.122 628.697 521.854C617.015 518.782 612.831 518.561 601.057 522.17C600.843 515.263 600.543 507.991 600.481 501.121Z"/><path fill="#A88458" d="M583.517 423.539C588.46 427.421 593.332 431.153 598.1 435.28C590.85 439.956 586.026 442.907 581.926 451.007C581.047 452.744 579.078 456.624 577.9 458.045C572.491 452.973 569.137 450.018 563.026 445.872C572.828 438.566 577.677 434.252 583.517 423.539Z"/><path fill="#A88458" d="M573.67 498.289C583.134 500.211 584.498 500.517 594.461 500.496L594.562 521.27C594.561 522.67 594.461 522.831 593.125 522.553C585.924 522.489 580.581 523.204 573.555 524.675C573.97 515.885 574.008 507.082 573.67 498.289Z"/><path fill="#A88458" d="M446.961 566.42C452.219 570.828 457.568 575.126 463.006 579.311C452.41 584.315 445.759 589.893 441.464 600.953C441.273 601.232 441.195 601.424 440.932 601.582C441.298 601.6 427.898 590.503 427.079 589.714C435.565 584.638 443.875 575.974 446.961 566.42Z"/><path fill="#A88458" d="M420.705 592.386C423.587 593.43 436.087 605.315 438.995 608.136C437.219 610.355 428.637 621.114 427.125 621.577C419.257 615.205 414.382 610.832 407.469 603.229C412.218 599.929 416.532 596.385 420.705 592.386Z"/><path fill="#A88458" d="M596.079 403.343C599.657 404.854 613.131 417.944 616.555 421.375C612.403 425.384 609.559 428.428 605.021 432.112C602.747 433.161 589.237 419.576 586.141 417.265L585.493 416.762C589.216 412.303 592.475 407.836 596.079 403.343Z"/><path fill="#A88458" d="M498.743 634.189C507.051 634.809 517.625 634.544 526.051 634.505C526.128 638.24 526.652 647.205 526.388 650.476C515.34 651.338 509.722 651.169 498.823 650.359C498.792 646.362 498.429 637.91 498.743 634.189Z"/><path fill="#A88458" d="M374.575 497.408C380.502 497.909 384.92 498.414 391.01 498.614C390.938 503.083 391.18 521.944 390.455 525.044C384.578 525.035 380.237 525.175 374.431 525.43C373.373 514.658 374.269 507.726 374.575 497.408Z"/><path fill="#A88458" d="M428.665 403.361C430.247 404.313 437.831 414.585 439.268 416.557C436.698 418.74 421.501 432.101 420.087 432.584C415.935 428.727 412.806 425.615 408.458 421.835C414.909 415.373 421.652 409.208 428.665 403.361Z"/><path fill="#A88458" d="M604.628 592.359C605.981 592.932 615.278 602.044 616.97 603.662C611.858 609.311 604.676 615.629 598.809 620.629C598.526 620.817 598.071 621.171 597.721 621.261C596.483 620.731 588.045 609.134 586.701 607.279C592.888 602.732 598.732 597.319 604.628 592.359Z"/><path fill="#A88458" d="M508.27 374.712C514.434 374.306 520.325 375.104 526.409 375.645C526.21 380.849 526.049 385.745 525.963 390.958C521.053 391.031 521.009 391.247 516.392 390.061C514.303 389.845 502.798 391.336 499.545 391.591C499.375 386.314 498.891 380.766 498.458 375.492C502.023 375.049 504.707 374.948 508.27 374.712Z"/><path fill="#A88458" d="M641.725 498.284C644.818 498.079 647.379 498.02 650.48 497.989C651.143 506.854 651.396 516.775 650.726 525.593C648.311 525.458 646.782 525.347 644.363 525.029L634.986 524.522L634.989 498.523C637.211 498.445 639.521 498.427 641.725 498.284Z"/><path fill="#A88458" d="M449.734 561.767C455.137 558.502 461.262 554.769 464.277 549.118C467.634 551.213 468.068 551.29 471.477 552.928C474.854 565.053 473.018 566.433 470.097 577.322C469.258 576.488 468.574 575.874 467.67 575.113C466.515 573.651 452.113 563.412 449.734 561.767Z"/><path fill="#A88458" d="M562.192 548.081C567.116 552.672 569.426 555.996 575.689 561.341C571.497 564.653 567.263 567.91 562.988 571.113C559.087 574.016 555.823 578.114 554.56 570.992C553.474 564.864 553.714 559.423 554.963 553.368C558.737 551.027 558.793 551.234 562.192 548.081Z"/><path fill="#A88458" d="M466.719 449.881C467.918 450.89 468.465 462.243 468.659 464.753C465.625 468.332 463.595 471.115 461.299 475.192C459.91 473.166 458.894 471.715 457.33 469.804C455.243 467.27 452.62 464.816 450.126 462.679C455.74 458.523 461.273 454.256 466.719 449.881Z"/><path fill="#A88458" d="M509.463 615.13C516.063 614.78 520.015 614.51 521.443 621.251L522.901 628.421C521.142 628.45 519.384 628.456 517.625 628.439L502.719 628.425C503.711 624.485 504.087 620.442 505.228 616.666C505.503 615.756 508.668 615.292 509.463 615.13Z"/><path fill="#A88458" d="M559.644 451.199C564.774 453.892 570.193 459.098 574.96 462.931C572.777 464.877 571.129 466.155 569.137 468.351C567.788 469.842 566.429 471.32 565.181 472.898L564.603 473.604C562.435 470.538 560.345 467.825 557.919 464.937C558.949 460.257 559.207 455.952 559.644 451.199Z"/><path fill="#A88458" d="M488.245 418.332C490.68 419.783 493.695 421.44 496.502 421.956L499.626 422.516C498.36 424.647 497.016 426.976 495.723 429.068C494.289 431.389 493.246 424.524 491.667 427.8C486.067 433.879 489.587 433.725 489.236 435.277C488.336 435.439 486.548 432.691 485.776 431.795C486.631 427.436 487.538 422.716 488.245 418.332Z"/><path fill="#EAE0D7" d="M463.297 404.773C465.171 404.139 467.242 404.561 468.718 405.878C470.195 407.195 470.85 409.204 470.433 411.138C470.016 413.073 468.591 414.634 466.703 415.226C463.829 416.126 460.766 414.547 459.832 411.683C458.899 408.82 460.444 405.738 463.297 404.773Z"/><path fill="#A88458" d="M536.892 417.9C538.349 419.32 539.609 427.576 540.185 429.942L540.689 431.957C539.783 432.834 537.439 435.51 536.944 433.346C536.654 432.113 536.384 430.875 536.136 429.633C534.895 425.572 533.127 429.218 531.496 428.966C530.95 428.882 529.182 425.064 528.699 424.141C531.639 422.033 534.071 419.949 536.892 417.9Z"/><path fill="#EAE0D7" d="M513.65 392.859C516.598 392.483 519.305 394.537 519.736 397.479C520.167 400.42 518.163 403.164 515.23 403.649C513.284 403.971 511.316 403.217 510.083 401.678C508.85 400.138 508.545 398.053 509.284 396.224C510.024 394.396 511.693 393.109 513.65 392.859Z"/><path fill="#EAE0D7" d="M561.632 404.699C564.568 404.186 567.361 406.155 567.864 409.093C568.367 412.03 566.387 414.816 563.448 415.308C560.524 415.798 557.755 413.83 557.255 410.908C556.755 407.986 558.712 405.21 561.632 404.699Z"/><path fill="#A88458" d="M501.895 397.164C502.596 397.178 503.297 397.186 503.998 397.188C508.494 397.182 504.587 400.571 510.467 404.913L511.241 405.503C508.77 408.756 506.722 411.939 504.408 415.257C502.939 417.603 502.085 418.771 500.426 420.974C503.006 411.956 506.392 406.087 501.895 397.164Z"/><path fill="#EAE0D7" d="M510.465 563.393C513.079 565.434 513.776 573.946 512.898 577.004C512.762 577.475 510.954 577.761 510.63 577.838C510.224 577.736 509.815 577.641 509.405 577.554C504.867 576.613 506.278 573.245 506.434 568.739C507.86 566.632 508.776 565.302 510.465 563.393Z"/><path fill="#EAE0D7" d="M517.88 563.712C520.821 565.035 520.45 568.782 520.511 571.498C520.637 577.028 521.738 575.913 516.806 577.301C512.311 577.098 515.401 574.426 515.446 570.487C515.471 568.218 516.702 565.658 517.88 563.712Z"/><path fill="#EAE0D7" d="M502.547 563.8C504.618 566.188 505.26 569.161 505.019 572.245C504.797 575.091 506.081 576.895 502.847 576.236C499.384 574.842 498.657 575.104 498.838 571.245C499.034 567.084 499.46 566.32 502.547 563.8Z"/><path fill="#EAE0D7" d="M495.162 562.313C496.25 563.346 497.038 564.664 497.917 565.905C497.695 568.138 498.317 574.19 496.284 573.945C495.944 573.748 495.602 573.554 495.258 573.364C490.044 570.519 492.155 566.242 495.162 562.313Z"/><path fill="#EAE0D7" d="M533.104 561.815C534.35 564.067 535.961 568.583 535.407 571.221C535.239 572.024 531.869 572.85 531.109 573.098C530.414 573.393 529.644 573.557 529.532 572.533C529.049 568.095 530.747 565.343 533.104 561.815Z"/><path fill="#EAE0D7" d="M524.23 572.423C522.898 567.124 523.259 567.645 526.846 563.225C528.196 566.876 529.168 569.479 527.921 573.714C527.668 574.573 524.421 575.339 523.268 575.773C523.892 574.773 524.162 574.355 524.195 573.187L524.23 572.423Z"/><path fill="#EAE0D7" d="M511.688 590.522C512.342 590.528 515.888 590.292 515.99 590.987C516.365 593.533 514.652 597.991 513.84 600.388C509.399 601.642 510.528 593.07 511.688 590.522Z"/><path fill="#8F673E" d="M583.858 418.097C589.483 422.725 594.712 427.73 600.322 432.35C600.829 432.768 602.098 433.815 601.673 434.588C600.305 435.107 587.524 422.88 583.552 421.463C583.58 420.267 583.782 419.345 583.858 418.097Z"/><path fill="#EAE0D7" d="M520.024 589.568C520.255 589.646 521.848 590.086 521.928 590.323C522.563 592.203 521.812 598.992 520.615 600.363L519.767 601.349L519.498 600.859C517.31 596.944 516.035 592.549 520.024 589.568Z"/><path fill="#A88458" d="M454.886 498.113C457.672 499.517 456.296 501.698 456.081 505C455.639 511.813 456.48 519.305 455.79 526.019C455.623 525.933 454.778 525.533 454.774 525.376C454.623 520.247 454.41 502.062 454.886 498.113Z"/><path fill="#EAE0D7" d="M503.842 589.992C508.823 590.806 510.118 589.654 508.759 595.869L507.158 596.55C506.356 597.514 506.707 602.759 504.77 599.398C503.728 597.589 503.904 592.288 503.842 589.992Z"/><path fill="#A88458" d="M441.42 416.905C441.586 420.915 426.022 432.838 422.358 435.291C422.327 435.118 422.172 434.344 422.207 434.312C426.482 430.393 437.86 420.28 441.42 416.905Z"/><path fill="#A88458" d="M499.356 630.766C504.385 630.249 519.044 630.506 524.906 630.641C525.171 630.647 525.418 631.595 525.482 631.795C522.75 632.116 499.774 632.637 499.356 630.766Z"/><path fill="#A88458" d="M570.225 497.232C570.313 497.275 571.207 497.674 571.215 497.766C571.649 503.038 571.718 520.561 571.178 524.644C569.305 524.278 570.096 500.373 570.225 497.232Z"/><path fill="#A88458" d="M577.753 562.364C580.645 563.887 575.354 566.435 573.628 567.784C569.214 571.235 564.598 574.677 559.775 577.521C559.46 577.45 559.377 577.468 559.147 577.295C559.045 576.763 576.172 563.554 577.753 562.364Z"/><path fill="#EAE0D7" d="M527.851 587.436C530.801 588.898 528.028 595.4 527.043 597.348L526.292 598.798C523.711 592.883 522.282 590.577 527.851 587.436Z"/><path fill="#A88458" d="M631.573 499.262C633.311 500.642 632.611 522.049 632.185 524.779C632.061 524.67 631.176 523.952 631.176 523.831C631.2 516.722 630.376 506.02 631.573 499.262Z"/><path fill="#8F673E" d="M446.806 562.469C448.965 563.138 464.958 575.775 466.084 577.675C463.351 577.994 448.017 565.101 446.806 562.469Z"/><path fill="#A88458" d="M393.521 498.739C393.68 498.862 394.455 499.407 394.45 499.565C394.273 504.566 395.08 521.525 393.994 525.223C392.384 522.823 393.135 502.354 393.521 498.739Z"/><path fill="#A88458" d="M559.727 447.422C563.215 447.964 576.043 458.19 577.599 461.52C575.438 460.923 560.88 449.4 559.727 447.422Z"/><path fill="#A88458" d="M596.928 499.277C597.152 499.478 597.376 499.679 597.601 499.88C598.027 503.85 598.564 521.644 598.101 524.248C598.285 524.384 597.12 523.588 597.115 523.43C596.968 518.729 596.175 502.796 596.928 499.277Z"/><path fill="#A88458" d="M602.367 589.919C602.497 590.2 602.627 590.481 602.757 590.761C601.841 592.346 587.332 603.995 585.126 605.553C584.995 605.427 584.55 605.047 584.626 604.943C586.626 602.202 600.296 591.303 602.367 589.919Z"/><path fill="#EAE0D7" d="M498.138 592.75C496.246 584.672 503.661 588.254 502.107 593.509C499.636 597.745 499.556 599.752 498.138 592.75Z"/><path fill="#EAE0D7" d="M498.138 592.75C499.851 593.184 500.377 593.297 502.107 593.509C499.636 597.745 499.556 599.752 498.138 592.75Z"/><path fill="#A88458" d="M466.334 445.447C466.498 445.606 467.033 446.096 466.919 446.238C464.524 449.24 450.412 459.907 448.124 461.51C448.054 461.45 447.711 461.22 447.705 461.051C447.681 460.353 464.591 446.873 466.334 445.447Z"/><path fill="#A88458" d="M428.126 499.851C429.881 501.272 429.377 521.441 428.415 524.145C427.291 523.043 427.839 502.682 428.126 499.851Z"/><path fill="#A88458" d="M422.845 589.892C426.62 590.421 438.128 602.393 440.66 605.684C437.716 604.16 425.397 592.702 422.845 589.892Z"/><path fill="#EFDFDA" d="M494.846 591.016C494.515 591.361 493.001 593.191 492.777 593.265C492.122 592.379 492.755 591.076 492.312 590.052C491.774 588.692 492.643 586.532 493.148 585.293C493.893 583.464 495.943 585.619 496.005 586.715C496.079 588.026 496.426 589.161 496.554 590.456C495.926 590.634 495.458 590.792 494.846 591.016Z"/><path fill="#EAE0D7" d="M532.085 584.788C535.417 585.97 534.114 594.948 532.962 595.041L532.763 594.384C531.155 588.869 528.389 588.016 532.085 584.788Z"/><path fill="#EAE0D7" d="M489.78 562.388C491.066 563.699 492.4 570.382 489.564 571.199C486.652 568.68 486.554 566.402 489.199 563.176L489.78 562.388Z"/><path fill="#EAE0D7" d="M490.377 581.881C492.903 584.086 491.21 586.671 489.801 589.576C486.493 586.447 486.926 584.563 490.377 581.881Z"/><path fill="#EAE0D7" d="M536.957 562.242C538.873 563.611 540.068 568.304 538.778 570.125L538.259 570.922C536.146 570.051 535.456 564.526 536.957 562.242Z"/><path fill="#A88458" d="M521.433 401.386L521.629 403.785C521.311 406.171 521.673 408.608 521.221 410.972C519.887 409.116 519.023 407.943 517.789 405.959C519.914 403.692 519.741 403.972 521.433 401.386Z"/><path fill="#EAE0D7" d="M536.166 581.384C538.979 584.332 538.88 585.922 536.891 588.809C534.008 589.111 534.887 583.597 536.166 581.384Z"/><path fill="#8F673E" d="M458.55 506.289C460.127 507.515 460.011 520.385 459.567 522.604C458.133 522.372 458.49 508.585 458.55 506.289Z"/><path fill="#A88458" d="M500.112 393.243C503.807 393.016 507.736 391.423 507.271 394.961C505.888 394.967 497.818 396.021 500.112 393.243Z"/><path fill="#EFDFDA" d="M523.268 575.773C519.866 576.006 521.74 569.412 522.216 569.385C522.966 569.766 523.686 571.57 524.23 572.423L524.195 573.187C524.162 574.355 523.892 574.773 523.268 575.773Z"/><path fill="#705D4E" d="M567.26 510.447C568.343 511.605 568.055 521.494 567.853 523.502C565.971 519.515 566.702 514.777 567.26 510.447Z"/><path d="M467.67 575.113C468.574 575.874 469.258 576.488 470.097 577.322C470.255 577.755 470.1 578.106 469.915 578.562C468.963 580.907 470.294 580.226 470.753 580.846C470.219 581.399 466.538 580.619 465.632 581.138C465.319 581.318 464.842 581.768 464.335 581.393L464.335 581.341C465.213 580.452 468.081 580.907 467.699 579.256C467.408 577.994 467.304 578.428 468.548 577.212C467.856 575.777 467.763 576.561 467.67 575.113Z"/><path fill="#A88458" d="M519.92 393.128C521.249 393.103 526.217 392.194 525.703 394.164C521.701 395.512 522.989 395.962 519.92 393.128Z"/><path fill="#332E2D" d="M544.25 550.855C544.561 552.439 543.245 557.694 542.855 559.667C541.979 556.51 542.952 553.725 544.25 550.855Z"/><path fill="#705D4E" d="M490.15 431.31C492.634 431.998 493.386 431.779 492.326 434.148L492.046 434.864C490.062 435.158 490.258 433.17 490.15 431.31Z"/><path fill="#9D9C9B" d="M494.846 591.016C495.458 590.792 495.926 590.634 496.554 590.456C496.995 592.36 497.152 594.42 497.449 596.387L496.848 596.341C496.115 594.047 496.158 593.016 494.846 591.016Z"/><path fill="#332E2D" d="M521.433 401.386C522.024 394.812 520.542 398.913 523.881 397.913L523.88 398.284C521.426 399.098 522.177 401.316 521.629 403.785L521.433 401.386Z"/><path fill="#484743" d="M534.077 430.509C534.38 430.48 534.261 430.473 534.453 430.507C534.486 430.584 534.518 430.66 534.55 430.736C534.398 430.848 534.246 430.959 534.094 431.071L534.057 431.046C534.021 430.838 534.032 430.989 534.077 430.509Z"/><path fill="#705D4E" d="M535.641 435.444C535.93 435.339 535.829 435.351 535.977 435.355C536.097 435.438 536.026 435.368 536.178 435.639C536.069 435.655 535.961 435.672 535.852 435.688C535.687 435.591 535.768 435.662 535.641 435.444Z"/><path d="M345.497 501.206C351.451 499.733 357.47 503.373 358.93 509.331C360.389 515.288 356.734 521.299 350.773 522.744C344.832 524.184 338.847 520.544 337.392 514.607C335.938 508.669 339.563 502.675 345.497 501.206Z"/><path fill="#9D9C9B" d="M345.471 503.828C350.01 502.344 354.892 504.825 356.368 509.367C357.845 513.909 355.355 518.786 350.811 520.255C346.278 521.72 341.414 519.238 339.941 514.707C338.469 510.176 340.943 505.308 345.471 503.828Z"/><path d="M677.222 500.993C681.022 500.74 684.683 502.464 686.909 505.555C689.134 508.645 689.609 512.665 688.164 516.189C686.644 519.896 683.233 522.488 679.254 522.96C675.272 523.433 671.347 521.708 669.002 518.454C666.657 515.201 666.262 510.931 667.97 507.303C669.678 503.675 673.22 501.259 677.222 500.993Z"/><path fill="#A88458" d="M675.725 503.459C680.352 502.206 685.134 504.876 686.493 509.474C687.853 514.071 685.293 518.913 680.728 520.378C677.68 521.356 674.342 520.607 672.004 518.42C669.667 516.234 668.696 512.953 669.469 509.846C670.241 506.74 672.635 504.296 675.725 503.459Z"/><path d="M511.443 336.73C517.352 335.746 522.96 339.676 524.052 345.566C525.144 351.455 521.318 357.135 515.449 358.334C511.556 359.13 507.536 357.762 504.937 354.757C502.338 351.751 501.564 347.576 502.913 343.839C504.262 340.101 507.524 337.383 511.443 336.73Z"/><path fill="#9D9C9B" d="M510.56 339.385C513.59 338.413 516.908 339.174 519.211 341.369C521.514 343.564 522.434 346.842 521.61 349.914C520.785 352.987 518.347 355.364 515.254 356.11C510.709 357.207 506.11 354.512 504.846 350.01C503.583 345.508 506.108 340.813 510.56 339.385Z"/><path d="M511.522 667.415C517.341 666.496 522.844 670.346 523.975 676.127C525.106 681.909 521.46 687.549 515.724 688.89C511.822 689.803 507.733 688.511 505.064 685.522C502.395 682.534 501.572 678.326 502.918 674.552C504.264 670.777 507.564 668.04 511.522 667.415Z"/><path fill="#A88458" d="M511.139 669.909C515.74 668.8 520.372 671.613 521.51 676.207C522.648 680.8 519.864 685.45 515.278 686.617C510.651 687.794 505.95 684.98 504.802 680.345C503.654 675.711 506.498 671.028 511.139 669.909Z"/><path d="M623.788 382.8C629.645 381.411 635.517 385.044 636.888 390.905C638.259 396.767 634.609 402.628 628.743 403.981C622.902 405.329 617.072 401.697 615.706 395.861C614.341 390.024 617.955 384.183 623.788 382.8Z"/><path fill="#A29281" d="M624.263 384.947C628.762 383.813 633.342 386.49 634.562 390.967C635.782 395.445 633.194 400.075 628.741 401.38C625.783 402.247 622.588 401.449 620.386 399.293C618.183 397.137 617.317 393.96 618.122 390.985C618.926 388.009 621.274 385.701 624.263 384.947Z"/><path d="M397.769 621.182C403.641 620.111 409.274 623.986 410.375 629.853C411.475 635.719 407.63 641.372 401.769 642.503C395.865 643.642 390.162 639.762 389.053 633.853C387.944 627.943 391.854 622.26 397.769 621.182Z"/><path fill="#A88458" d="M398.52 623.303C403.217 622.588 407.611 625.797 408.36 630.489C409.108 635.182 405.93 639.599 401.243 640.38C396.509 641.17 392.038 637.953 391.282 633.213C390.526 628.474 393.775 624.025 398.52 623.303Z"/><path d="M626.056 621.277C631.929 621.053 636.899 625.576 637.227 631.443C637.556 637.311 633.123 642.361 627.262 642.794C623.377 643.081 619.639 641.249 617.486 638.002C615.333 634.755 615.1 630.599 616.877 627.131C618.653 623.664 622.163 621.426 626.056 621.277Z"/><path fill="#A88458" d="M624.093 623.885C628.581 622.593 633.267 625.182 634.563 629.669C635.858 634.156 633.273 638.844 628.787 640.144C624.296 641.444 619.601 638.856 618.304 634.363C617.007 629.871 619.6 625.179 624.093 623.885Z"/><path d="M397.699 382.697C403.551 381.509 409.248 385.321 410.384 391.183C411.519 397.045 407.657 402.708 401.785 403.792C395.987 404.862 390.409 401.058 389.288 395.269C388.166 389.48 391.92 383.869 397.699 382.697Z"/><path fill="#9D9C9B" d="M398.37 384.826C402.928 383.968 407.33 386.931 408.252 391.476C409.173 396.022 406.274 400.465 401.742 401.451C398.753 402.102 395.645 401.092 393.608 398.809C391.571 396.526 390.922 393.324 391.908 390.428C392.894 387.532 395.364 385.391 398.37 384.826Z"/><path d="M571.283 350.163C576.061 349.069 580.822 352.053 581.921 356.83C583.02 361.607 580.04 366.371 575.264 367.474C570.482 368.579 565.71 365.594 564.61 360.811C563.51 356.027 566.498 351.258 571.283 350.163Z"/><path fill="#9D9C9B" d="M571.705 352.26C575.269 351.394 578.873 353.527 579.829 357.068C580.784 360.608 578.744 364.266 575.228 365.311C572.874 366.012 570.324 365.38 568.569 363.661C566.814 361.942 566.13 359.406 566.781 357.037C567.433 354.668 569.317 352.839 571.705 352.26Z"/><path d="M358.21 566.159C361.38 565.625 364.591 566.845 366.605 569.351C368.619 571.857 369.122 575.255 367.918 578.236C366.714 581.217 363.993 583.315 360.804 583.719C356.01 584.328 351.611 580.99 350.905 576.21C350.198 571.43 353.445 566.963 358.21 566.159Z"/><path fill="#A29281" d="M357.313 568.678C359.573 567.802 362.129 568.212 364.002 569.75C365.875 571.289 366.774 573.717 366.353 576.104C365.932 578.491 364.258 580.466 361.972 581.272C358.512 582.491 354.715 580.709 353.442 577.269C352.169 573.828 353.893 570.004 357.313 568.678Z"/><path d="M449.593 350.239C452.642 349.24 455.992 349.967 458.354 352.139C460.715 354.311 461.718 357.59 460.976 360.711C460.235 363.833 457.864 366.31 454.778 367.188C450.135 368.509 445.289 365.872 443.876 361.256C442.464 356.64 445.005 351.742 449.593 350.239Z"/><path fill="#9D9C9B" d="M450.713 352.226C454.23 351.326 457.819 353.407 458.785 356.906C459.75 360.405 457.736 364.033 454.256 365.063C451.946 365.747 449.447 365.13 447.721 363.45C445.995 361.77 445.31 359.289 445.931 356.962C446.551 354.635 448.38 352.824 450.713 352.226Z"/><path d="M359.454 440.252C364.276 439.965 368.434 443.607 368.785 448.425C369.136 453.243 365.551 457.449 360.738 457.865C357.566 458.14 354.493 456.686 352.693 454.06C350.893 451.434 350.646 448.043 352.046 445.184C353.446 442.324 356.276 440.44 359.454 440.252Z"/><path fill="#9D9C9B" d="M358.654 442.251C361.089 441.814 363.57 442.73 365.137 444.646C366.704 446.561 367.11 449.175 366.199 451.475C365.288 453.776 363.202 455.402 360.748 455.725C357.076 456.208 353.689 453.671 353.12 450.011C352.551 446.351 355.008 442.906 358.654 442.251Z"/><path d="M664.667 565.98C676.087 566.346 679.879 577.416 668.449 583.458C655.681 583.94 653.242 570.481 664.667 565.98Z"/><path fill="#A29281" d="M664.212 568.593C666.504 567.829 669.031 568.386 670.789 570.045C672.547 571.703 673.251 574.193 672.622 576.526C671.992 578.86 670.132 580.658 667.778 581.207C664.364 582.004 660.926 579.977 659.973 576.603C659.019 573.229 660.886 569.701 664.212 568.593Z"/><path d="M571.497 658.846C576.243 657.975 580.802 661.1 581.703 665.84C582.605 670.581 579.51 675.16 574.776 676.092C569.997 677.032 565.367 673.903 564.457 669.119C563.548 664.334 566.707 659.724 571.497 658.846Z"/><path fill="#9D9C9B" d="M571.849 660.846C575.42 660.17 578.86 662.526 579.521 666.099C580.183 669.673 577.814 673.104 574.238 673.751C570.681 674.395 567.273 672.042 566.616 668.488C565.958 664.934 568.298 661.517 571.849 660.846Z"/><path d="M664.793 440.34C667.899 439.78 671.067 440.931 673.088 443.355C675.11 445.779 675.673 449.102 674.564 452.057C673.455 455.012 670.844 457.144 667.727 457.639C662.977 458.394 658.504 455.184 657.7 450.442C656.895 445.699 660.059 441.194 664.793 440.34Z"/><path fill="#A29281" d="M664.017 442.794C667.43 441.477 671.264 443.178 672.578 446.592C673.892 450.007 672.186 453.84 668.769 455.149C665.359 456.456 661.535 454.753 660.224 451.345C658.913 447.936 660.61 444.11 664.017 442.794Z"/><path d="M451.711 658.764C456.395 658.482 460.453 661.975 460.87 666.649C461.288 671.322 457.913 675.479 453.253 676.032C450.117 676.403 447.027 675.041 445.186 672.475C443.345 669.909 443.045 666.545 444.402 663.693C445.759 660.842 448.559 658.953 451.711 658.764Z"/><path fill="#A29281" d="M449.883 661.33C452.069 660.464 454.553 660.857 456.365 662.356C458.177 663.855 459.028 666.222 458.586 668.532C458.144 670.842 456.479 672.727 454.242 673.452C450.933 674.524 447.37 672.776 446.192 669.502C445.015 666.228 446.648 662.611 449.883 661.33Z"/><path fill="#532A5A" d="M558.278 331.043C570.598 310.318 579.488 287.274 592.075 266.783C595.88 261.24 603.007 260.793 608.776 263.285C619.704 268.005 629.801 274.34 640.462 279.599C681.528 299.857 722.319 320.754 763.418 340.922C770.338 344.318 771.817 353.355 768.733 359.702C766.076 365.78 762.914 371.588 759.917 377.501L741.389 414.163C732.307 432.682 723.085 451.132 713.723 469.511C711.067 474.746 705.103 487.975 702.239 492.206C700.483 492.501 700.585 492.581 698.979 491.866C697.811 490.634 694.502 471.39 693.644 468.054C690.652 456.413 686.538 445.09 681.359 434.244C678.92 429.1 675.808 423.612 673.542 418.666C666.483 406.936 660.988 399.25 652 388.945C652.83 384.231 653.688 378.519 655.938 374.331C660.223 366.36 668.092 359.666 676.63 356.842C684.558 353.96 692.673 350.932 696.472 342.62C700.656 333.464 696.315 319.925 685.969 316.608C651.749 305.638 661.292 351.235 635.05 359.094C630.272 360.525 627.268 360.956 622.447 361.635L621.934 361.364C617.978 359.236 613.997 356.49 610.209 354.036C593.88 343.458 576.825 336.724 558.278 331.043Z"/><path fill="#E54B47" d="M652 388.945C652.83 384.231 653.688 378.519 655.938 374.331C660.223 366.36 668.092 359.666 676.63 356.842C683.926 364.116 684.243 366.653 683.408 376.858C688.31 372.909 693.07 370.837 699.616 371.406C704.574 371.837 709.15 374.249 712.307 378.097C720.135 387.505 715.673 400.161 706.496 406.652C697.124 413.282 684.766 416.936 673.542 418.666C666.483 406.936 660.988 399.25 652 388.945Z"/><path fill="#E54B47" d="M586.097 303.045C597.602 302.651 593.6 310.7 595.37 311.528C597.634 310.892 598.95 308.639 602.546 309.808C604.207 310.337 605.579 311.521 606.344 313.087C609.506 319.463 602.182 324.033 597.442 326.315C592.805 328.126 588.053 329.894 583.478 331.826C582.25 325.136 579.189 315.974 580.518 309.503C581.24 305.985 583.154 304.651 586.097 303.045Z"/><path fill="#E54B47" d="M602.927 289.591C599.858 290.231 599.29 291.842 597.081 294.126C596.16 295.077 598.83 296.178 598.475 297.954C597.399 299.148 594.04 296.186 592.907 295.653C592.475 295.45 590.038 294.122 589.862 293.259C590.078 290.458 593.114 293.463 593.864 292.714C598.848 287.739 604.115 283.287 609.411 278.645C611.011 277.243 609.987 274.755 612.993 275.672C613.404 275.792 616.044 276.488 615.947 277.277C615.242 283.001 613.87 289.324 612.897 294.994C611.827 301.226 612.365 301.936 613.568 307.524C611.738 306.494 600.937 301.654 604.853 299.779C605.386 299.524 607.784 301.174 608.398 301.493C608.44 298.635 609.429 294.703 607.568 292.833C605.356 291.722 604.529 291.38 602.927 289.591Z"/><path fill="#532A5A" d="M603.105 287.885C604.328 286.054 611.02 280.754 612.916 279.253C611.426 283.345 610.267 286.816 608.887 290.926C606.654 289.821 605.163 289.484 603.105 287.885Z"/><path fill="#532A5A" d="M401.194 266.536C414.592 265.818 417.773 275.719 423.078 285.724C425.066 289.472 426.947 293.315 428.871 297.098C435.611 310.418 442.44 323.693 449.36 336.921C438.6 341.14 428.195 346.214 418.245 352.095C413.04 355.206 408.023 358.92 402.776 361.872L402.24 362.169C389.841 360.901 376.04 354.059 371.918 341.534C367.217 327.245 362.153 313.021 342.848 315.576C332.744 316.913 325.48 329.213 328.069 339.423C331.671 353.625 345.853 354.253 356.523 360.55C366.063 366.434 370.475 375.481 372.827 386.078C353.598 382.235 343.048 380.602 324.591 372.424C324.17 395.514 310.005 409.217 313.881 433.436C317.461 445.349 325.513 451.227 337.742 450.954C332.541 465.289 330.254 477.345 328.285 492.342C324.504 493.566 320.465 495.987 316.589 497.699C313.095 491.625 308.377 481.228 304.939 474.581L276.807 420.537C271.207 409.886 265.479 399.303 259.622 388.79C255.207 380.678 250.338 372.467 247.528 363.651C246.222 359.552 247.986 351.699 251.871 349.489C259.216 345.311 266.656 341.271 274.021 337.097L330.491 305.639L374.753 280.693C383.068 276.025 392.62 270.335 401.194 266.536Z"/><path d="M274.743 374.351L279.007 375.365C283.808 376.464 290.612 377.565 292.176 382.982C293.399 387.218 289.946 389.192 286.659 390.212C284.942 389.734 282.953 389.049 285.051 391.293C287.113 392.238 288.362 392.704 290.434 393.469C287.29 395.334 286.197 396.192 283.55 398.698C283.996 394.76 283.996 393.138 283.978 389.204C282.354 391.924 279.788 397.891 275.999 396.38C269.016 393.595 272.452 383.769 273.393 379.738L273.872 377.733C274.137 376.597 274.45 375.48 274.743 374.351Z"/><path d="M264.239 352.668C265.708 355.238 266.6 355.665 268.839 357.662C271.874 360.368 275.032 362.897 277.778 365.903C278.636 366.165 280.085 364.915 280.813 365.816C281.26 367.02 274.305 372.385 274.294 369.029C274.275 363.573 271.295 363.925 267.949 366.057C263.598 370.146 270.888 372.074 271.035 373.187C270.566 373.646 267.357 373.789 266.514 374.612C266.299 374.822 264.962 375.62 264.59 375.738C263.73 376.011 263.705 374.205 264.32 373.809C264.262 373.845 265.158 372.942 265.19 372.749C265.467 371.076 263.909 368.651 263.703 366.918C262.941 364.278 262.14 361.494 261.251 358.903C259.638 354.198 259.956 354.507 264.239 352.668Z"/><path fill="#532A5A" d="M262.961 355.653C264.596 356.263 270.57 361.747 269.336 362.87C268.567 363.191 265.899 364.501 265.699 364.313C264.908 363.568 263.257 356.765 262.961 355.653Z"/><path fill="#EAE0D7" d="M845.463 596.015C849.39 597.776 866.5 608.587 870.105 611.454C870.829 615.136 871.752 619.023 872.558 622.709C886.223 625.372 912.351 627.733 925.758 624.601C937.247 621.917 944.756 615.09 950.791 605.254C940.699 648.37 908.422 640.888 874.485 635.67C874.935 638.12 875.074 640.54 875.278 643.021C884.24 647.11 899.116 655.031 908.674 655.268C910.175 655.305 915.748 653.913 917.493 653.491C910.792 663.374 908.714 667.703 905.312 679.075C901.632 667.558 898.288 666.985 887.522 662.389C879.758 659.074 871.892 655.44 863.908 652.634C863.343 652.435 860.064 653.162 859.382 653.304L858.744 652.864C858.636 652.51 858.036 650.613 857.949 650.548C852.388 646.391 830.299 638.044 824.734 635.839L814.583 637.659C818.348 643.605 821.928 646.476 828.167 649.483C816.762 652.259 816.668 656.493 811.821 666.473C816.646 670.39 829.636 677.626 835.461 680.087C840.113 671.909 838.853 665.841 836.809 657.179C845.9 668.821 846.833 671.499 862.057 676.229C853.723 678.778 851.685 679.664 844.833 685.085C851.343 689.819 866.73 698.237 874.057 702.184C876.878 697.833 879.579 691.665 881.724 686.867C879.51 681.383 877.403 675.856 875.404 670.289C881.28 675.951 892.545 683.003 899.944 686.324C887.946 697.185 883.397 712.666 878.697 727.417C877.023 724.633 874.274 719.573 871.885 717.599C863.154 710.384 848.766 703.367 838.674 697.878L833.919 699.174C833.205 697.142 832.618 695.867 831.696 693.907C823.393 688.593 813.799 683.118 805.26 678.003C803.467 677.98 793.425 677.464 793.354 679.512C792.937 691.56 803.164 712.036 808.001 722.679C815.988 725.038 824.081 726.963 832.137 728.999C854.001 734.523 872.459 739.828 889.609 721.656C890.24 720.902 890.488 720.675 891.194 719.997L891.314 720.721C887.919 730.174 882.121 738.118 873.176 743.088C857.679 751.698 833.675 742.425 817.621 737.384C819.233 741.113 820.178 744.166 821.405 748.06C828.747 753.419 836.033 758.854 843.262 764.366C847.492 764.545 849.421 764.283 853.546 763.556C847.206 770.718 842.927 777.005 837.588 784.903C837.374 782.376 837.199 779.362 836.321 777.019C836.009 776.187 835.082 774.396 834.429 773.859C829.36 769.686 806.187 752.023 801.598 750.162C800.026 750.492 798.977 750.903 797.478 750.403C796.483 749.391 796.423 747.595 796.159 746.08C791.045 741.68 771.087 727.137 765.358 723.705C762.128 724.714 760.388 724.957 757.053 725.476C761.236 736.791 768.019 737.655 775.511 745.915C764.347 740.92 761.392 741.914 749.85 745.738C749.998 748.821 749.759 752.586 749.638 755.726C755.758 761.846 761.362 768.962 767.426 775.177C768.977 776.767 771.184 777.073 772.564 778.44C780.442 786.243 789.665 793.059 798.424 799.973C802.822 798.697 807.121 797.106 811.29 795.212C811.873 791.585 812.354 788.059 813.348 784.52C808.834 778.634 804.267 772.501 799.387 766.941C801.413 767.931 803.334 769.137 805.261 770.306C811.571 774.138 818.176 777.429 824.589 781.082C824.13 786.454 823.662 791.682 823.436 797.075C819.889 801.412 816.123 805.564 812.15 809.515C806.478 810.553 797.893 811.138 792.09 811.62C782.159 805.154 770.471 794.837 759.895 789.847C759.002 787.313 740.606 766.32 737.151 761.124C736.723 754.747 736.486 748.358 736.44 741.966C741.759 736.767 744.468 735.79 750.858 732.3C751.716 730.196 752.842 725.924 753.526 723.569L753.297 724.046C761.773 720.539 768.197 709.166 772.257 701.424C772.571 705.937 773.297 708.684 774.439 713.017C780.472 718.809 791.605 725.942 798.701 731.45C793.686 720.516 789.154 708.657 784.666 697.447C780.862 697.354 779.448 697.295 775.71 698.025C777.923 695.475 789.6 680.878 790.076 678.616L788.368 678.395C789.969 675.503 793.908 671.792 796.043 668.944C800.042 663.608 804.133 657.858 807.073 651.862C808.381 649.195 810.592 640.807 809.871 638.107L808.143 637.784C809.434 633.342 814.85 632.514 817.68 625.932C821.188 617.77 819.429 611.374 822.749 603.688L823.025 603.062C831.515 600.842 837.299 599.01 845.463 596.015Z"/><path fill="#151315" d="M841.114 609.936C842.583 610.019 855.095 617.489 857.466 618.835C859.545 625.145 861.108 631.475 862.972 637.839C860.534 636.775 858.086 635.737 855.626 634.724C846.63 630.81 840.638 628.863 831.549 624.04C831.546 620.949 831.475 617.355 831.725 614.312C834.573 613.126 838.406 611.33 841.114 609.936Z"/><path fill="#EAE0D7" d="M190.796 590.898C194.138 584.402 197.1 577.237 200.019 570.502C201.081 576.138 202.063 582.157 203.75 587.639C206.303 595.938 214.269 600.688 219.832 606.975C217.936 614.338 215.6 625.141 213.053 631.928C204.03 635.773 190.908 643.128 182.975 646.103C176.371 643.199 169.968 640.271 163.079 638.085C150.717 650.236 122.126 676.403 114.717 690.49C121.476 692.714 126.373 693.767 133.472 691.454C141.86 688.722 150.175 685.739 158.563 683.02C159.389 679.309 160.327 675.403 160.979 671.678C162.822 674.994 163.547 676.511 164.485 680.355C172.462 678.243 180.826 675.213 188.664 672.524C194.577 670.496 202.49 668.011 208.057 665.353C210.217 661.114 212.089 655.783 213.811 651.278C217.518 667.337 219.057 669.888 232.947 679.586C228.421 679.447 221.791 679.044 217.426 679.284C206.403 690.38 194.399 700.038 183.175 711.051C186.499 714.166 189.172 716.134 192.801 718.83C187.322 717.667 182.885 716.623 177.282 716.144C163.945 728.334 156.176 729.417 151.621 747.596C146.794 738.33 144.757 733.707 138.661 724.871C142.492 725.465 143.885 725.52 147.777 725.472C153.567 719.623 159.405 713.821 165.289 708.066C161.3 704.712 160.033 701.985 157.97 697.271C149.329 699.715 140.823 702.61 132.486 705.946L130.278 712.522C126.711 707.111 118.811 696.797 114.316 692.203L114.161 692.042C111.163 698.645 107.445 709.685 108.741 717.036L107.264 717.521C85.5205 677.096 125.824 656.855 149.31 630.808L145.481 627.318L113.95 642.101C109.573 644.168 101.842 647.559 97.8654 649.925C95.4132 654.262 93.3671 658.816 91.7533 663.53C88.519 645.65 89.6034 646.442 76.2548 633.303C80.6674 634.383 86.1969 636.365 90.7392 635.827C95.649 635.245 135.345 616.32 142.233 613.089L143.882 604.632L154.532 607.783C166.45 602.018 179.168 596.929 190.796 590.898Z"/><path fill="#151315" d="M195.544 604.575C198.424 606.243 201.303 607.519 204.04 609.391C202.503 613.849 201.911 616.934 199.705 621.182C193.283 625.358 188.02 626.728 182.332 630.455C179.484 629.504 177.3 628.668 174.539 627.506L173.875 627.234C168.719 624.881 164.878 623.217 159.535 621.323C171.691 616.074 183.699 610.489 195.544 604.575Z"/><path fill="#151315" d="M188.599 687.583C188.781 687.642 188.963 687.701 189.145 687.761C188.671 688.686 173.406 701.88 171.918 701.25C170.72 698.441 169.998 695.964 169.06 693.101C175.69 691.406 182.066 689.669 188.599 687.583Z"/><path fill="#EAE0D7" d="M714.435 141.481C726.797 158.687 728.577 157.666 747.887 165.432C749.342 173.518 750.25 182.409 751.689 190.767C745.126 197.889 737.642 205.19 730.795 212.112L718.401 212.377C712.485 226.265 708.187 240.787 705.59 255.657C713.958 250.187 725.041 242.409 732.931 236.288L733.217 225.09C735.517 228.082 736.772 229.61 739.416 232.279C752.116 224.6 765.916 215.11 778.327 206.894C779.394 202.63 780.01 194.556 780.463 189.913C781.317 191.923 782.202 193.919 783.118 195.9C788.383 207.062 796.108 210.126 806.909 214.015C801.7 215.659 797.689 216.324 792.35 217.29C786.821 222.944 769.895 249.485 765.263 257.323L774.238 263.031C769.787 263.636 765.091 264.056 760.607 264.524C755.086 272.025 739.925 290.08 742.938 299.263C740.38 300.702 740.985 303.818 741.649 306.31C741.942 304.28 741.647 302.319 742.253 300.549C742.437 308.733 742.906 311.151 746.161 318.739C735.817 309.85 732.937 303.675 731.302 289.906C728.64 287.988 725.778 285.092 723.351 282.781C725.025 283.046 731.788 284.043 732.787 282.638C737.642 275.807 741.869 267.861 746.111 260.551C740.917 256.973 739.633 255.953 736.454 250.572C732.568 252.41 716.17 262.932 712.868 265.489C712.792 267.876 713.037 271.275 713.138 273.734C709.974 270.871 707.807 268.942 704.376 266.455C704.471 274.021 705.061 277.321 707.925 284.273C676.995 265.713 699.262 237.028 703.737 212.571L703.861 211.87C700.717 211.897 699.544 211.849 696.388 211.434C689.6 221.369 681.535 232.032 674.397 241.838C674.704 246.311 674.959 250.321 675.609 254.773C667.366 246.12 662.143 242.999 651.604 237.882C655.616 237.242 658.456 236.519 662.214 235.065C669.732 225.6 681.618 207.982 688.321 197.798C687.822 195.656 687.175 193.392 686.609 191.254L693.461 190.424C698.937 184.088 710.65 167.178 715.458 159.859C715.316 153.724 714.974 147.595 714.435 141.481Z"/><path fill="#151315" d="M725.584 170.373C726.979 170.706 728.361 171.09 729.758 171.414L731.759 171.87C732.677 172.081 733.529 172.281 734.44 172.513C734.985 177.038 735.415 180.715 735.675 185.272C731.569 191.272 727.912 194.455 722.522 199.179C719.759 199.458 717.247 199.577 714.475 199.94C710.722 200.041 707.638 200.281 703.896 200.564C710.854 191.06 718.704 179.365 725.584 170.373Z"/><path fill="#151315" d="M763.807 233.536C763.917 233.601 764.027 233.665 764.137 233.73C764.145 233.809 753.556 250.515 752.046 251.549C751.75 251.751 750.541 250.264 750.474 250.189C748.812 248.016 748.044 247.054 746.749 244.662C752.268 240.679 758.166 237.333 763.807 233.536Z"/><path fill="#EAE0D7" d="M574.854 801.426C576.975 802.314 579.194 803.157 581.404 803.793C589.143 806.021 616.212 793.662 623.907 789.294C628.544 786.662 631.126 784.534 632.538 779.324L645.087 806.231C659.778 802.384 658.221 797.826 670.373 789.544C678.163 792.666 686.048 795.549 694.016 798.187C695.959 805.683 699.569 815.75 702.178 823.118C700.536 826.78 699.173 830.188 697.714 833.929C704.191 841.159 717.035 852.843 724.572 859.1C739.654 871.619 752.369 878.166 772.47 875.848C740.562 900.92 711.362 866.141 691.557 843.541C690.257 846.403 688.772 849.36 687.398 852.203C692.159 859.071 698.943 871.63 703.389 879.294L715.359 881.232C710.938 883.771 705.752 885.785 701.205 888.541C696.964 891.112 693.741 893.717 689.874 896.775C690.832 893.247 691.708 889.697 692.503 886.128C685.017 876.185 678.704 861.547 671.328 850.6C669.652 849.924 669.203 849.775 667.654 848.731C666.773 847.13 667.345 845.65 667.688 843.745C662.218 834.623 657.268 824.748 651.66 815.325C646.664 812.939 641.856 810.923 636.759 808.783L640.854 806.914C637.024 803.345 635.911 802.67 630.956 801.48C626.518 802.688 622.875 804.603 618.8 806.677C623.912 819.658 629.418 832.411 634.757 845.3C637.331 846.745 640.304 848.183 642.959 849.539C641.838 852.111 640.838 854.686 639.809 857.294C644.305 872.617 653.04 892.048 658.415 907.976C663.116 910.149 668.366 912.92 673.049 915.258C655.759 917.258 652.897 916.834 638.638 928.219C640.477 923.138 642.343 918.067 644.236 913.005C638.243 896.402 631.902 879.927 625.216 863.591L617.635 859.389L620.819 851.646C615.129 839.47 609.549 824.212 604.722 811.563C599.522 813.412 595.876 814.849 590.876 817.18C588.908 822.793 588.169 827.295 587.418 833.173L586.059 832.754C582.729 822.171 578.991 811.72 574.854 801.426Z"/><path fill="#151315" d="M669.463 803.506C673.184 804.782 678.018 806.263 681.751 807.312C683.834 812.329 685.406 817.381 687.231 822.461C685.904 828.025 684.062 832.94 681.452 838.037C681.31 838.505 681.312 838.812 680.778 838.877C679.735 835.783 675.263 828.93 673.281 825.551C670.375 820.596 668.138 816.088 665.434 811.114L665.642 810.636C666.885 807.725 667.844 806.204 669.463 803.506Z"/><path fill="#EAE0D7" d="M133.786 299.367C135.177 302.057 137.288 306.484 139.116 308.78C146.474 318.025 157.651 324.219 167.671 330.18C169.614 331.336 172.015 331.088 174.263 331.241C174.933 332.705 174.982 333.072 175.359 334.601C182.063 341.16 204.933 351.729 211.916 357.89C215.017 352.303 218 346.651 220.863 340.938C219.312 336.815 217.715 332.71 216.073 328.622C221.499 332.265 232.975 339.627 237.088 343.722C228.213 347.036 217.46 374.972 214.886 384.106C224.886 383.321 229.824 382.817 239.437 379.288C218.091 406.656 201.089 399.04 172.113 390.046C169.467 395.839 168.913 398.168 163.902 402.101C172.952 408.508 187.306 417.046 197.045 422.735C203.473 421.901 208.175 421.079 214.397 419.214C202.288 431.194 200.702 434.272 197.781 450.882L191.413 437.167C177.251 428.369 156.175 414.871 141.63 407.28C138.177 407.842 136.171 408.256 132.807 409.191C132.148 405.789 131.557 402.943 130.667 399.601C122.331 394.058 114.025 388.468 105.75 382.833C101.373 379.81 94.7903 374.851 90.4584 372.264C84.8608 373.632 79.4908 374.669 73.8416 375.768C83.547 365.446 91.791 360.382 91.5829 345.221C91.642 344.32 91.809 339.188 93.2075 343.012C95.4429 347.311 98.7213 354.188 101.192 358.045C109.74 359.484 120.31 362.373 128.86 364.458L169.209 374.307C172.857 370.043 176.437 365.721 179.949 361.345C179.82 365.767 179.512 370.699 180.068 375.043C189.081 378.016 204.733 383.174 213.612 384.144C212.573 381.437 208.787 372.408 206.62 370.768C195.703 362.503 181.692 354.995 169.724 348.052C168.111 347.116 167.045 347.309 165.323 347.494C162.96 346.31 163.18 343.55 160.061 341.714C143.538 331.989 138.22 327.148 119.103 327.536C123.269 323.884 127.739 320.598 131.241 316.417C131.856 310.701 132.705 305.013 133.786 299.367Z"/><path fill="#EFDFDA" d="M91.5829 345.221C91.642 344.32 91.809 339.188 93.2075 343.012C92.1413 343.946 92.2279 343.896 91.5829 345.221Z"/><path fill="#151315" d="M133.943 381.711C135.291 382.066 136.368 382.341 137.734 382.647L139.743 383.105C140.468 383.269 141.266 383.469 141.993 383.641L143.992 384.128C148.677 385.266 153.226 386.559 157.83 387.962C155.427 390.399 153.709 392.154 150.995 394.285L150.139 393.828C144.203 390.74 139.087 385.72 133.327 382.62L133.943 381.711Z"/><path fill="#484743" d="M133.327 382.62C132.989 382.422 131.492 381.762 131.456 381.256L131.58 381.165C132.347 381.07 133.246 381.418 133.943 381.711L133.327 382.62Z"/><path fill="#EAE0D7" d="M648.619 94.2209C650.878 95.2969 656.35 99.8294 658.716 101.687C667.977 108.954 678.085 108.614 689.519 109.571C692.737 116.687 696.155 123.71 699.771 130.633C697.476 138.378 694.244 154.896 693.115 162.778C686.393 164.945 679.625 166.969 672.817 168.847C674.693 178.509 675.476 191.529 676.42 201.49C670.033 209.775 663.69 218.094 657.391 226.445C650.116 228.569 642.81 230.585 635.475 232.495L629.995 233.896C613.888 223.874 611.038 225.711 591.913 222.864C597.886 218.694 605.416 215.422 611.685 211.01C614.508 203.892 618.213 196.41 621.349 189.362C624.586 182.085 627.77 174.404 631.544 167.447C630.675 164.345 629.124 161.145 627.812 158.179C631.615 156.851 633.051 156.485 637.02 155.781C642.717 143.316 650.977 127.57 655.116 114.899C653.123 107.953 650.957 101.058 648.619 94.2209Z"/><path fill="#151315" d="M656.788 173.569C657.173 173.48 658.167 173.234 658.224 173.465C658.931 176.319 659.496 190.24 659.575 192.269C655.663 198.253 652.025 204.987 647.892 210.963C645.725 214.095 633.794 218.694 630.409 219.27L630.006 219.028C628.258 217.994 627.845 217.606 626.293 216.332C630.414 205.374 639.279 188.283 644.305 176.782C644.607 176.694 644.909 176.605 645.211 176.516C646.956 175.967 648.723 175.492 650.507 175.091C652.615 174.637 654.69 174.062 656.788 173.569Z"/><path fill="#151315" d="M669.479 122.494C671.998 122.465 674.517 122.485 677.036 122.553C678.495 126.29 680.239 130.053 681.787 133.941C681.592 134.752 681.379 135.492 681.174 136.289L680.67 138.287C680.49 139.008 680.285 139.787 680.115 140.508L679.642 142.507C679.47 143.24 679.271 144.028 679.107 144.758L678.602 147.007C678.14 149.151 677.623 151.198 677.256 153.361C672.305 155.192 666.173 157.137 661.101 158.552C658.138 159.605 654.773 160.532 651.737 161.507C657.307 148.487 664.014 135.225 669.479 122.494Z"/><path fill="#EAE0D7" d="M315.551 748.948C316.376 749.611 320.602 754.108 321.375 755.042C329.43 764.78 336.121 765.815 347.83 769.038C350.536 774.921 353.193 782.275 355.567 788.415C351.209 797.653 344.582 821.728 342.383 832.546C342.126 833.81 343.298 837.456 343.735 838.893C342.033 839.339 337.334 840.5 336.102 841.339C326.746 847.709 317.478 861.389 309.675 870.253C300.699 872.027 291.285 874.498 282.401 876.711C264.475 864.046 265.595 867.313 244.554 861.734C250.559 859.225 257.631 856.976 262.89 853.082C268.193 849.155 285.278 820.076 289.911 812.415C289.398 809.364 288.216 805.258 287.418 802.169C291.402 801.811 293.859 801.447 297.791 800.687C299.683 798.503 303.478 792.308 305.206 789.684C309.555 783.08 314.132 776.343 318.201 769.593C317.515 762.697 316.5 755.815 315.551 748.948Z"/><path fill="#151315" d="M331.191 779.401C337.527 780.208 336.924 782.179 338.224 787.912C334.961 796.004 332.241 805.164 329.273 813.395C328.044 816.804 325.37 825.5 323.545 828.142C316.498 838.343 306.958 848.342 299.032 858.207C294.982 858.748 290.185 859.785 286.114 860.558C283.869 860.727 281.374 860.678 279.858 858.774C279.462 855.196 325.305 787.66 331.191 779.401Z"/><path fill="#EAE0D7" d="M794.544 264.028C803.677 257.435 818.807 246.629 826.132 237.883C827.749 235.951 829.515 229.542 830.352 226.778C835.161 237.11 839.599 241.933 847.974 249.738C844.079 249.309 840.471 248.844 836.537 248.858C830.138 252.525 815.814 264.437 810.151 269.497C821.319 267.177 836.969 264.323 847.559 261.002L850.015 253.565C856.235 263.415 858.672 267.113 867.112 275.276C850.946 271.638 830.66 276.672 814.675 281.143C809.372 287.565 785.257 328.309 783.497 336.134C787.572 337.297 789.823 337.503 794.09 337.698C805.803 331.62 817.557 324.429 828.751 317.454C829.142 317.21 829.603 314.598 829.693 314.026C831.991 312.718 834.22 314.237 835.747 313.407C846.127 307.764 857.588 302.509 867.421 296.048C869.719 291.148 871.932 286.208 874.061 281.232L874.34 281.951C875.84 285.876 876.765 289.74 877.93 293.751C881.619 306.445 888.809 319.639 900.152 326.89C885.794 327.464 887.222 328.956 876.432 335.569C877.128 332.551 877.948 329.277 878.509 326.259C876.326 320.555 873.586 316.258 870.275 311.133C863.574 314.468 851.782 320.331 845.415 324.211C853.874 332.798 854.47 331.597 864.45 336.54C852.346 339.16 843.763 343.277 834.947 352.017C837.422 343.772 840.363 338.002 836.49 330.102C825.206 335.32 815.692 341.325 804.832 347.322C808.037 353.064 811.353 358.743 814.778 364.356C822.183 365.257 827.939 366.339 835.086 368.626C820.081 369.937 816.289 372.742 803.578 381.141C803.614 378.017 803.551 375.701 802.42 372.699C799.517 364.989 792.202 346.848 784.592 343.385L783.336 344.157C776.073 335.526 774.227 331.408 765.425 322.429C768.917 322.149 770.962 322.063 774.347 321.144C779.121 315.543 794.155 290.422 797.693 283.599C796.657 283.771 792.355 284.475 791.761 284.911C784.031 290.582 768.47 301.783 761.644 307.941C760.838 311.581 760.778 315.094 760.582 318.813C757.537 313.871 747.171 302.48 742.253 300.549C741.647 302.319 741.942 304.28 741.649 306.31C740.985 303.818 740.38 300.702 742.938 299.263C745.007 299.054 751.528 298.603 753.553 297.229C765.492 289.124 777.641 277.877 788.685 268.386C789.468 267.713 789.111 265.709 789.019 264.72C790.181 263.63 792.479 264.042 794.544 264.028Z"/><path fill="#EAE0D7" d="M238.297 689.91C239.931 692.165 242.564 698.978 245.316 702.133C246.101 703.899 254.051 710.05 254.348 710.877C259.517 725.289 265.458 728.713 277.553 737.628C276.753 741.735 275.729 754.551 274.716 757.122C270.846 766.936 257.038 777.466 252.522 787.297C245.79 789.867 226.641 802.337 219.687 806.743C213.847 805.244 202.307 802.837 196.579 802.268C189.554 789.533 184.5 787.785 173.337 779.662C178.736 778.947 184.283 778.302 189.615 777.25C195.011 771.858 214.67 756.452 216.659 751.109C217.065 750.017 217.374 749.194 218.088 748.248C224.449 747.212 224.616 745.804 229.694 741.144C235.84 735.957 247.246 727.76 249.986 720.288C250.434 719.067 251.014 714.416 251.211 712.871C248.916 712.593 246.427 712.439 244.107 712.248C236.416 715.966 221.307 728.248 212.783 733.633C212.464 735.185 212.279 737.593 211.038 738.394C210.691 738.324 210.343 738.258 209.995 738.195C209.485 738.104 207.642 737.858 207.285 738.101C195.243 746.263 183.482 754.971 171.59 763.358C170.574 767.417 170.277 769.983 169.792 774.18C164.925 764.189 160.566 758.423 152.154 751.38C155.861 751.39 160.527 751.818 164.316 752.036C169.371 749.326 175.024 744.906 179.751 741.507C186.169 736.891 192.749 732.284 199.011 727.48C199.359 725.725 199.42 725.275 200.15 723.574C202.029 722.697 202.842 723.206 205.172 723.513C214.361 716.434 224.968 709.169 234.519 702.419C235.884 698.495 237.114 693.935 238.297 689.91Z"/><path fill="#151315" d="M255.444 737.336C257.747 738.138 261.309 740.566 263.532 741.961C263.454 742.838 262.969 748.016 262.796 748.581C259.919 758.014 243.138 775.123 235.599 780.651C231.071 783.972 219.405 790.767 214.472 793.843L209.443 792.102L201.866 789.469L199.517 785.46C207.563 777.768 216.622 770.025 225.176 762.852C226.059 762.112 228.78 762.599 230.428 761.495C231.204 759.253 231.512 757.971 233.238 756.371C240.396 749.738 247.714 743.303 255.444 737.336Z"/><path fill="#EAE0D7" d="M524.379 78.6165C524.288 79.6919 516.069 89.9262 514.818 91.7274C516.083 105.343 516.617 124.772 517.054 138.604C519.729 141.064 522.344 143.59 524.895 146.179C521.745 148.82 520.271 150.761 517.643 153.965C518.229 162.305 518.51 195.903 520.564 201.416C523.086 208.186 528.6 214.218 533.131 219.761C524.803 217.849 511.403 213.228 506.118 206.064C501.843 200.268 503.346 189.626 500.913 182.912C498.341 175.815 495.026 168.969 492.093 162.014C487.438 151.621 482.84 140.764 477.905 130.535C478.007 133.325 478.152 136.267 478.358 139.047C479.963 160.685 479.926 182.918 482.086 204.488C485.59 207.937 489.189 211.289 492.878 214.54C483.703 212.979 476.857 211.16 468.025 214.094C464.442 215.044 460.563 216.501 457.031 217.742C460.125 213.693 463.152 209.372 466.138 205.228C465.565 188.379 463.936 171.343 463.45 154.608C460.974 151.901 458.328 149.212 455.779 146.561L462.644 138.751C462.968 124.804 461.499 107.88 460.917 93.6214C458.629 90.6854 452.304 84.3474 449.356 80.9569C467.061 86.1616 469.336 86.8454 486.534 80.2393C484.827 83.4143 480.288 88.9801 477.939 92.0238C480.196 98.3287 482.877 103.708 485.341 109.806C490.665 122.978 496.336 135.767 502.125 148.745C500.826 132.375 499.61 107.504 499.497 91.4004C496.055 87.2596 492.797 84.0026 489.027 80.192C509.275 83.1209 503.692 85.336 524.379 78.6165Z"/><path fill="#EAE0D7" d="M557.542 102.916C570.679 103.483 576.38 109.887 584.562 118.494C584.884 129.192 584.144 140.927 584.181 151.688C584.195 155.729 587.707 155.305 583.989 160.477C581.632 163.756 581.572 170.689 580.13 174.672C578.339 181.199 576.989 187.545 574.632 194.01C569.778 198.123 562.873 202.814 557.532 206.282C551.855 205.122 547.259 203.721 541.718 202.067C537.475 197.309 532.802 192.032 529.366 186.69C530.576 178.531 531.429 161.344 531.57 152.982L529.249 149.168C534.102 144.868 534.833 137.609 536.397 131.417C537.884 125.356 539.539 119.337 541.359 113.368C545.941 109.939 552.573 106.007 557.542 102.916Z"/><path fill="#151315" d="M562.013 115.414C564.277 115.669 567.935 119.711 569.669 121.398C569.904 130.589 569.549 141.092 569.394 150.343C568.34 151.881 567.202 153.15 567.064 154.962C567.581 156.15 568.725 158.576 568.521 159.708C566.836 169.038 563.919 179.791 561.681 188.903C558.868 190.608 556.516 191.602 553.517 192.935C549.52 191.15 548.088 190.117 544.949 187.342C544.55 179.835 545.073 161.971 546.272 154.884C547.632 153.588 547.708 153.612 548.65 151.893C548.783 150.059 548.187 149.33 547.335 147.692C549.624 138.438 551.989 129.202 554.428 119.986C557.326 117.791 558.793 117.081 562.013 115.414Z"/><path fill="#EAE0D7" d="M266.818 149.401C266.958 157.133 267.063 164.64 267.568 172.356C273.555 178.82 279.413 184.04 285.432 190.952C279.77 187.888 265.377 182.473 259.032 180.2C256.183 180.988 253.146 181.71 250.267 182.446C248.635 186.779 247.59 189.91 246.35 194.367C252.169 206.862 260.788 223.076 269.499 233.635C276.168 241.718 287.588 254.108 295.294 261.123C300.3 261.915 305.57 263.771 310.661 263.753L315.504 260.552C306.952 248.036 297.781 234.649 288.648 222.598C283.421 222.215 279.355 221.626 273.875 221.431C285.553 214.019 294.733 207.34 305.688 198.86C304.626 203.603 303.793 208.676 302.923 213.478C305.881 219.474 328.219 252.541 332.168 256.636L333.763 257.188C337.082 259.366 346.71 264.443 350.293 265.955L350.639 267.576C326.912 269.948 330.731 267.053 310.795 280.263C301.729 277.99 292.685 276.44 283.672 274.202C279.238 268.294 263.849 252.648 257.859 247.132C254.674 247.342 251.752 247.756 248.593 248.182L250.865 238.008C243.661 226.712 235.342 209.767 228.929 197.565C230.679 190.2 232.468 182.844 234.296 175.498C242.782 171.068 246.485 169.205 255.576 166.303C260.757 160.431 262.945 156.171 266.818 149.401Z"/><path fill="#EAE0D7" d="M771.286 599.705C772.715 599.487 776.536 599.442 778.152 599.378C776.024 606.58 767.944 619.944 764.251 627.347C759.168 636.927 755.269 647.254 749.348 656.35C745.528 662.273 737.319 662.412 731.004 663.09C716.625 664.634 701.926 665.173 687.619 667.239C685.094 667.9 683.31 667.777 681.873 665.474C681.428 660.14 705.392 615.59 709.259 608.712C711.552 604.634 730.762 603.873 736.326 603.32L771.286 599.705Z"/><path fill="#151315" d="M744.639 611.614C757.811 614.034 746.128 625.175 738.197 627.562C726.212 627.319 735.442 614.636 744.639 611.614Z"/><path fill="#151315" d="M726.116 640.586C727.29 640.505 729.891 640.247 731.001 640.64C731.872 640.953 732.566 641.625 732.907 642.486C734.908 647.613 727.47 653.046 723.184 654.454C721.572 654.608 719.343 655.009 717.782 654.381C717.029 654.075 716.431 653.478 716.125 652.725C714.069 647.587 722.286 642.216 726.116 640.586Z"/><path fill="#EAE0D7" d="M254.286 590.153C261.189 591.237 272.745 594.76 279.962 596.694C287.275 598.654 316.787 604.033 319.846 609.889C324.84 619.447 328.497 634.859 332.25 645.426C333.445 648.793 339.739 665.46 339.246 667.969C330.828 667.486 287.156 657.719 280.161 654.499C278.329 653.656 276.24 652.524 275.116 650.787C271.09 644.562 265.119 624.945 262.314 617.102C259.997 610.621 257.182 604.312 254.928 597.82C254.052 595.299 253.059 592.693 254.286 590.153Z"/><path fill="#151315" d="M287.984 620.939C290.996 621.013 293.112 621.358 295.187 623.684C299.931 628.999 303.298 635.601 297.764 641.11C289.686 640.918 281.297 628.011 287.984 620.939Z"/><path fill="#EAE0D7" d="M696.569 543.079C706.918 542.274 719.737 539.571 729.802 540.85C735.038 541.515 745.262 554.551 748.779 558.818C757.212 569.047 765.869 579.38 774.425 589.541C775.96 591.364 777.641 594.121 776.459 596.462C772.266 598.359 718.691 602.809 708.889 603.92C701.349 594.741 693.869 586.108 686.518 576.737L689.149 570.167C689.215 569.993 689.281 569.818 689.347 569.643C689.671 568.693 689.984 567.74 690.285 566.782C692.874 558.462 694.855 551.67 696.569 543.079Z"/><path fill="#151315" d="M690.945 567.042C695.982 563.708 705.235 570.145 705.834 573.065C707.583 581.591 694.036 578.739 690.449 570.831L689.149 570.167C689.215 569.993 689.281 569.818 689.347 569.643C689.671 568.693 689.984 567.74 690.285 566.782L690.945 567.042Z"/><path fill="#EFDFDA" d="M689.149 570.167C689.215 569.993 689.281 569.818 689.347 569.643C689.671 568.693 689.984 567.74 690.285 566.782L690.945 567.042C690.707 568.363 690.528 569.489 690.449 570.831L689.149 570.167Z"/><path fill="#151315" d="M721.633 546.054C722.563 546.02 723.572 545.966 724.501 545.969C727.622 545.973 730.602 547.268 732.734 549.547C735.244 552.223 736.507 556.263 733.495 559.026C728.293 558.439 720.855 557.645 719.925 551C719.613 548.766 720.249 547.703 721.633 546.054Z"/><path fill="#151315" d="M699.927 547.461C703.433 547.226 707.904 547.488 710.634 549.841C714.062 552.795 715.783 555.544 712.863 559.155C704.94 560.539 695.577 556.385 699.927 547.461Z"/><path fill="#151315" d="M735.872 562.478C741.809 562.638 754.162 567.848 747.898 574.637C739.511 576.928 731.319 571.655 735.872 562.478Z"/><path fill="#151315" d="M731.335 581.995C737.753 582.625 749.025 589.058 740.869 594.643C736.772 594.536 730.878 593.857 729.092 589.706C727.475 585.947 727.904 583.656 731.335 581.995Z"/><path fill="#151315" d="M716.313 564.087C723.967 565.05 733.581 574.623 724.769 576.807C722.054 576.49 720.266 576.42 717.713 575.272C712.666 573.003 709.575 566.527 716.313 564.087Z"/><path fill="#151315" d="M751.261 580.35C757.954 580.305 769.773 585.007 763.034 592.403C755.732 593.829 746.962 589.316 751.261 580.35Z"/><path fill="#151315" d="M707.534 583.525C711.21 583.483 712.909 583.354 716.309 585.306C719.596 587.194 723.262 590.883 720.157 594.665L719.595 595.383C715.473 595.676 712.115 595.378 708.848 592.665C705.683 590.037 704.726 586.644 707.534 583.525Z"/><path fill="#EAE0D7" d="M302.554 537.518C309.892 537.11 322.206 541.13 330.258 542.836C330.517 545.248 331.237 548.457 331.711 550.901C320.543 556.06 324.004 562.429 334.846 563.389C336.497 569.414 338.334 574.39 340.455 580.273C333.693 586.804 327.083 597.576 319.089 603.958C314.467 603.011 307.831 601.087 303.114 599.857C291.898 597.345 280.737 594.589 269.639 591.593C265.914 590.603 259.171 589.097 256.016 587.54C255.73 586.834 255.341 586.012 255.8 585.257C260.417 577.667 297.113 540.617 302.554 537.518Z"/><path fill="#151315" d="M313.744 573.59C326.46 572.415 329.337 581.514 317.417 586.4C314.439 586.587 312.46 586.882 309.505 585.75C306.083 584.439 305.046 580.691 306.355 577.48C307.038 575.806 312.024 574.17 313.744 573.59Z"/><path fill="#151315" d="M287.549 567.132C301.799 565.766 302.568 576.16 292.627 579.164L291.688 579.465C280.101 581.576 275.01 571.868 287.549 567.132Z"/><path fill="#EAE0D7" d="M301.076 151.749C318.212 150.034 321.861 147.822 332.678 134.597L333.012 134.186C332.066 139.733 331.071 145.217 330.444 150.81C338.559 161.505 347.32 172.067 355.228 182.727C356.789 184.908 358.204 187.008 360.013 188.993C363.054 186.389 366.144 183.977 369.15 181.43C367.692 185.689 365.663 191.123 364.566 195.385C370.106 202.25 378.969 213.243 385.167 219.709C386.559 221.161 394.07 223.009 396.541 223.854C387.632 227.282 379.831 231.324 371.126 234.951C372.04 231.64 372.476 230.117 372.879 226.688C368.356 219.939 362.084 212.933 356.739 206.729C352.446 209.978 348.866 211.044 343.614 211.877C345.605 220.133 348.22 229.914 350.776 237.996C353.557 239.321 356.162 240.639 359.087 241.619C351.615 245.13 340.19 250.513 333.699 255.415C337.538 247.196 338.477 242.709 335.819 233.678C333.616 226.193 331.799 218.372 329.491 210.909C325.277 209.266 321.547 207.817 317.442 205.874C320.652 205.481 324.16 204.981 327.359 204.759C324.984 195.043 322.469 185.362 319.814 175.718C318.508 170.898 316.528 163.055 314.728 158.566C310.35 156.233 305.187 154.055 301.076 151.749Z"/><path fill="#151315" d="M336.441 181.86C338.262 183.475 349.038 196.092 350.292 198.263C350.292 198.887 349.748 198.895 349.234 199.008C346.447 199.787 343.705 200.718 341.021 201.797C339.869 196.899 338.597 191.918 337.604 186.994C337.268 185.272 336.88 183.56 336.441 181.86Z"/><path fill="#EAE0D7" d="M560.08 829.128C560.537 829.575 560.507 829.356 560.139 829.91C558.03 833.081 555.196 836.83 555.387 840.93C555.89 851.723 557.316 863.545 558.398 874.311C559.886 875.45 561.159 876.16 561.949 877.822C561.951 879.692 560.384 881.179 559.164 882.735C560.456 894.981 561.762 909.158 562.706 921.372L571.152 930.633C557.948 929.258 555.741 929.254 543.278 933.06L549.713 923.972C549.134 911.821 546.976 897.892 546.115 885.219C539.645 885.509 533.609 886.078 527.175 886.703C527.742 899.209 529.242 912.52 530.02 925.242C532.86 928.311 535.237 930.161 538.499 932.812C529.857 932.286 525.563 932.487 517.116 934.257C516.054 934.638 511.931 935.524 510.613 935.843C513.026 932.484 514.49 930.32 516.522 926.741C516.631 919.547 514.521 894.42 513.453 887.195L509.225 882.866L512.985 879.957C512.199 869.036 512.039 854.164 508.907 843.669C507.951 840.469 503.198 835.901 500.619 833.449C511.285 835.056 517.738 835.138 528.294 833.081C527.78 833.651 527.275 834.229 526.779 834.816C520.166 842.666 524.744 863.411 525.597 873.946C532.064 873.562 538.532 873.216 545.003 872.908C544.696 869.51 544.483 865.999 544.139 862.604C542.596 847.345 545.768 842.685 534.154 831.326C544.363 832.86 550.242 831.731 560.08 829.128Z"/><path fill="#EAE0D7" d="M717.836 756.94C718.7 757.913 718.359 769.079 718.424 771.653C725.061 778.07 746.828 797.148 753.927 801.389C756.132 799.803 758.604 797.488 760.68 795.662C760.633 799.836 760.177 802.973 759.623 807.136C775.05 819.388 775.531 827.019 796.515 829.321C788.193 834.007 780.978 838.946 773.121 844.357C773.468 841.551 773.446 839.117 773.48 836.304C768.523 831.364 760.603 825.426 754.859 820.092C750.141 824.009 748.382 825.056 742.725 827.423C743.975 830.921 745.914 834.859 747.498 838.285C749.441 842.484 752.103 847.327 754.256 851.493L762.419 853.081L741.103 869.729C742.801 859.415 744.063 858.836 738.702 849.064C735.203 842.687 731.55 835.307 728.251 828.743C724.37 827.815 719.923 827.227 715.942 826.607C719.614 824.99 721.798 823.971 725.646 822.959C719.489 813.184 711.777 793.467 705.395 781.781C700.502 780.503 695.595 779.285 690.673 778.126C705.567 774.039 710.288 769.672 717.836 756.94Z"/><path fill="#151315" d="M730.106 800.271C731.197 800.921 745.694 812.001 746.314 812.671L746.306 812.733C745.985 813.133 745.486 813.401 745.057 813.659L744.468 814.029C742.186 814.955 740.089 815.741 737.783 816.587C735.291 811.775 732.22 805.242 730.106 800.271Z"/><path fill="#EAE0D7" d="M411.456 818.898C426.35 828.959 428.8 829.397 445.847 825.02C443.911 826.765 434.291 834.408 434.108 835.98C432.455 850.173 432.433 867.887 432.366 882.011L443.116 882.039L431.978 890.145C431.798 908.873 426.754 914.998 438.12 931.178C428.969 927.399 421.447 924.926 411.694 923.257C414.732 921.201 415.773 920.564 418.332 917.904C417.993 911.314 418.391 901.689 418.464 894.875C418.454 893.95 418.542 894.446 418.071 893.413C412.794 892.78 410.179 892.247 405.823 889.35C402.416 894.716 398.172 904.19 395.351 910.118C393.398 914.219 395.08 916.702 396.823 920.63C387.818 918.066 380.038 917.297 370.875 915.886C389.459 905.343 384.774 897.861 394.876 881.259L395.246 880.659C393.511 876.301 392.045 873.116 389.951 868.91C392.547 870.13 395.399 871.925 397.902 873.4C401.918 866.648 414.667 839.763 417.07 832.878C415.011 828.091 413.172 823.841 411.456 818.898Z"/><path fill="#151315" d="M419.211 861.34C419.95 864.263 418.579 879.071 418.459 883.398C416.128 882.505 415.057 882.105 412.827 881.003C412.624 880.879 410.821 880.003 410.917 879.691C412.692 873.922 416.342 866.631 419.211 861.34Z"/><path fill="#EAE0D7" d="M897.534 350.452C901.856 351.787 914.169 357.092 918.31 359.044C922.658 367.221 921.697 371.49 921.484 380.607C924.285 384.255 928.098 387.086 931.681 389.97C913.388 387.791 914.049 390.468 897.132 397.746C903.823 388.262 910.698 381.694 909.445 370.238C906.3 368.657 903.761 367.863 900.433 366.738C894.488 368.556 888.47 371.204 882.709 373.594C877.768 385.029 873.437 400.182 869.622 412.243C861.393 415.367 849.904 419.93 841.618 422.288C833.762 420.511 825.927 417.187 818.374 414.256C814.109 399.73 812.649 397.866 817.125 383.027C820.965 380.441 824.302 377.732 828.388 375.074C833.168 376.028 845.59 381.613 850.896 383.777L848.887 384.759C844.325 384.182 842.108 383.927 837.559 384.035C832.086 387.444 829.593 390.257 826.619 395.865C827.518 399.456 828.13 401.57 829.408 405.034C832.453 406.042 835.464 406.775 838.569 407.568C844.074 406.014 853.61 401.964 859.157 399.756C862.97 388.051 866.416 374.856 869.777 362.936C877.667 358.819 889.122 354.213 897.534 350.452Z"/><path fill="#EAE0D7" d="M402.879 106C403.779 107.736 399.967 116.765 400.962 121.784C402.333 128.692 405.691 135.406 408.341 141.962C402.717 137.301 397.266 132.835 391.907 127.87C387.945 127.972 384.566 128.228 380.612 128.583C378.743 132.355 377.944 134.32 376.561 138.303C378.053 142.342 382.107 151.826 384.325 155.49C396.39 159.394 408.492 163.181 420.63 166.852C425.092 176.007 428.663 185.95 432.566 195.458C428.928 202.287 425.401 209.175 421.984 216.118C415.805 217.253 410.217 218.979 404.184 220.708C399.064 218.71 393.046 216.193 387.774 215C386.815 212.771 385.593 210.579 384.456 208.426L380.889 202.52C385.203 194.611 389.593 186.744 394.061 178.92C392.921 185.973 391.982 192.581 391.485 199.712C399.713 207.863 401.232 208.083 412.556 206.339C414.478 202.389 415.213 200.159 416.569 195.933C414.182 189.273 411.571 183.947 408.239 177.785C396.185 174.234 383.81 169.962 371.758 166.123C367.992 158.194 364.193 148.881 360.809 140.731C363.833 133.669 366.732 126.555 369.506 119.392C379.521 115.703 380.432 115.334 390.964 115.996C395.473 112.624 398.908 109.997 402.879 106Z"/><path fill="#EAE0D7" d="M356.093 799.684C358.804 801.049 364.27 805.567 367.51 807.378C378.798 813.689 390.821 818.4 403.767 817.101C396.024 824.203 395.034 829.266 392.56 839.08C391.144 835.024 390.41 832.726 388.347 829.004C384.084 826.625 376.636 824.814 371.725 823.564C367.794 830.673 364.091 840.405 361.829 848.174C370.516 849.028 374.101 848.931 382.246 846.291C374.109 854.511 371.325 862.35 369.023 873.542C366.126 866.357 364.343 861.983 358.93 856.515C354.131 865.899 348.871 878.463 345.439 888.394L345.249 889.64C347.37 891.391 358.301 894.086 361.515 894.964C367.929 891.411 371.426 888.155 378.888 884.346C370.768 896.427 368.326 900.149 364.529 914.394C364.12 913.884 363.699 913.385 363.264 912.897C357.597 906.56 342.339 901.345 333.966 899.383C330.225 898.506 322.598 898.158 318.492 897.933C326.317 892.009 330.622 890.013 334.246 880.05C337.03 872.398 342.394 861.222 344.565 853.146C344.711 852.599 343.511 849.752 343.223 849.059C343.972 848.488 346.71 846.414 347.133 845.712C352.587 836.669 357.393 823.163 360.854 813.303C358.78 808.305 357.617 804.843 356.093 799.684Z"/><path fill="#EAE0D7" d="M685.289 579.782C687.498 581.305 704.699 602.515 707.611 606.081C698.207 622.976 690.002 640.276 681.85 657.788C681.029 659.551 679.854 663.016 678.485 664.001L677.383 663.645C673.424 660.607 655.222 638.941 653.061 634.744C669.801 613.531 674.907 604.518 685.289 579.782Z"/><path fill="#151315" d="M677.399 605.933C685.149 606.368 685.053 611.025 684.499 618.252C684.18 622.424 682.086 625.911 678.711 628.385C668.477 628.737 669.478 610.607 677.399 605.933Z"/><path fill="#EAE0D7" d="M171.177 253.303C174.152 256.174 173.734 261.609 176.029 265.016C179.332 269.92 196.502 284.524 202.057 287.709C203.321 288.433 204.502 288.506 205.834 288.92C207.853 289.549 208.438 291.387 209.44 293.142C211.431 296.626 236.545 316.279 241.606 319.871C245.044 316.361 248.693 312.281 250.654 307.751C250.452 302.815 249.348 296.045 248.673 291.018C254.304 299.048 261.186 305.2 268.227 311.977C261.674 314.925 259.309 318.351 254.894 323.859C248.937 331.314 244.793 338.317 240.595 346.76C240.089 347.776 239.803 348.028 238.818 348.211C238.127 346.434 236.029 335.317 234.789 331.255C226.208 326.479 217.857 317.485 209.754 311.698C205.901 308.838 203.491 305.673 198.478 304.981C195.004 304.501 195.383 301.377 192.278 298.749C176.914 285.751 174.836 281.314 153.833 279.539C157.865 276.613 164.015 272.845 167.216 269.592C168.682 264.132 169.531 259 171.177 253.303Z"/><path fill="#EAE0D7" d="M452.611 827.725C458.095 831.332 461.542 832.758 468.235 833.182C476.114 833.682 484.032 834.254 491.907 834.832L499.615 830.447C498.093 838.121 500.194 851.79 501.714 859.738C498.247 854.942 494.914 850.738 490.705 846.581C487.7 846.319 484.69 846.118 481.677 845.98C481.282 856.192 479.83 867.407 479.238 877.896C480.343 879.151 480.588 879.383 481.47 880.86C480.952 882.748 480.268 882.703 478.316 884.24C477.219 894.795 475.369 915.327 475.439 925.422C478.039 928.838 479.615 931.144 481.869 934.804C471.491 931.581 464.351 931.32 453.79 932.122C456.462 929.826 460.422 926.265 462.427 923.47C462.841 912.287 464.219 893.817 465.528 882.769L461.494 879.408L465.813 876.37C466.448 865.809 467.39 855.268 468.638 844.761C465.452 844.51 461.681 844.497 458.439 844.409C454.46 848.076 451.165 851.234 447.381 855.13C449.9 845.632 452.025 837.603 452.611 827.725Z"/><path fill="#EAE0D7" d="M341.221 582.903C341.26 582.958 352.073 606.77 352.165 607.102C350.737 607.084 348.932 607.134 347.764 608.036C343.396 610.12 342.718 623.599 346.261 626.4C355.74 633.896 357.245 619.094 357.582 615.344C362.614 623.147 366.184 627.803 372.139 634.832C367.688 639.652 363.216 645.552 358.675 650.665C356.308 653.399 345.671 666.647 343.219 666.517C339.877 662.56 323.867 613.09 321.673 605.328C328.388 597.808 334.818 590.713 341.221 582.903Z"/><path fill="#9D9C9B" d="M755.693 495.126C761.627 494.755 767.847 496.539 771.964 500.992C774.998 504.26 776.545 508.638 776.239 513.087C775.92 517.808 773.659 522.185 769.994 525.177C758.065 534.814 745.536 525.338 733.86 521.447C730.994 520.492 727.909 520.133 724.905 519.865C715.506 519.825 712.225 521.098 703.644 524.954C706.09 514.285 705.48 508.794 704.579 498.118C717.457 504.242 727.506 505.822 740.944 500.17C745.401 498.295 750.981 495.967 755.693 495.126Z"/><path d="M752.739 499.11C766.046 497.881 775.412 506.547 768.012 520.254C766.038 523.911 759.936 525.18 756 525.16C749.315 525.125 744.28 521.578 739.366 517.264C742.7 518.627 745.653 520.293 748.506 521.439L750.451 522.209C754.58 523.163 757.212 523.389 761.302 522.178C767.313 520.576 769.632 514.085 767.885 508.505C766.081 502.744 759.288 500.275 753.744 500.997C749.119 501.6 746.043 504.483 742.014 506.114L739.089 507.267C743.926 503.428 746.754 501.047 752.739 499.11Z"/><path fill="#9D9C9B" d="M265.976 495.125C275.065 495.064 279.334 498.233 287.297 501.455C300.355 506.739 309.667 503.255 321.704 498.29C320.083 508.203 319.959 514.496 322.258 524.228C317.079 522.027 313.51 521.15 308.025 520.078C289.536 518.124 285.917 525.738 272.185 528.887C267.108 530.103 261.754 529.18 257.378 526.333C243.655 517.429 248.271 498.289 265.976 495.125Z"/><path d="M265.638 499.098C273.536 498.448 278.548 500.905 284.653 506.161C284.816 506.301 284.413 506.309 284.565 506.363C277.678 503.892 271.064 498.178 263.222 502.443C254.21 507.277 255.572 520.681 266.507 522.54L268.651 522.888C275.579 523.179 279.396 520.036 285.84 518.128C279.25 522.465 270.629 528.157 263.001 523.962C250.384 517.024 253.07 503.902 265.638 499.098Z"/><path fill="#9D9C9B" d="M652.797 642.905C654.187 644.995 655.857 651.655 658.997 655.931C665.984 666.499 678.745 668.225 688.665 674.599C698.732 681.068 699.168 696.356 689.309 703.308C685.719 705.839 682.423 706.401 678.283 707.017C650.649 703.529 669.114 672.771 633.969 661.021C642.081 654.703 646.258 650.515 652.797 642.905Z"/><path d="M671.101 672.57C674.778 672.659 679.954 674.352 683.295 675.917C686.733 677.682 689.96 681.657 690.763 685.406C693.425 697.832 680.559 706.463 669.989 699.429C664.655 695.879 663.742 690.398 662.523 684.796C662.473 683.916 662.129 681.223 662.512 680.485C663.205 679.354 663.746 682.629 663.767 682.712C665.069 687.855 665.885 694.347 670.794 697.419C676.427 700.943 683.972 700.284 687.574 694.309C689.184 691.64 689.497 688.142 688.789 685.15C686.442 676.821 677.578 676.274 671.101 672.57Z"/><path fill="#9D9C9B" d="M372.614 644.28C375.922 647.198 377.102 650.114 379.491 652.41C382.407 655.214 388.001 659.272 391.349 661.826C378.822 667.271 371.213 674.649 366.935 687.778C363.41 698.595 359.898 705.288 347.73 706.863C341.982 706.508 334.597 703.938 332.181 698.635C323.429 679.431 338.412 673.342 352.705 667.796C363.246 663.706 369.053 654.239 372.614 644.28Z"/><path d="M351.866 673.616C352.149 673.587 352.87 673.409 353.06 673.72C352.869 674.45 346.782 676.152 345.638 676.651C329.702 683.591 337.73 706.137 354.191 697.74C359.314 695.127 361.035 688.845 361.893 683.7C361.938 683.432 363.454 677.62 364.158 680.393C363.324 684.489 362.832 689.252 361.163 693.053C358.014 700.229 348.928 704.117 341.76 700.494C338.573 698.873 336.209 695.995 335.236 692.555C334.26 689.171 335.164 684.941 336.982 681.968C340.422 676.342 345.913 674.999 351.866 673.616Z"/><path fill="#9D9C9B" d="M674.24 317.573C681.896 317.351 690.394 319.205 693.603 327.112C703.134 350.6 674.646 351.278 662.692 362.388C656.24 368.384 654.599 370.867 651.455 378.695L651.001 379.748C649.707 379.379 641.961 370.584 639.752 368.768C637.19 366.662 634.791 364.774 631.996 362.75C633.002 362.466 634 362.155 634.99 361.819C661.884 352.625 652.882 324.963 674.24 317.573Z"/><path d="M672.264 349.948C706.838 340.914 676.722 307.82 664.948 333.997C664.175 335.717 662.701 344.132 662.622 344.217C662.573 344.216 662.523 344.214 662.474 344.213L662.305 344.272C659.184 339.228 665.348 327.058 670.84 323.866C673.987 322.053 677.737 321.602 681.224 322.617C684.627 323.635 687.43 326.062 688.924 329.284C693.498 339.091 686.329 348.475 676.505 350.16C675.688 350.3 674.629 350.618 673.797 350.825L672.264 349.948Z"/><path fill="#484743" d="M673.797 350.825C673.013 350.918 672.145 351.097 671.39 350.898C671.355 350.842 671.321 350.785 671.286 350.729C671.553 350.355 671.864 350.207 672.264 349.948L673.797 350.825Z"/><path fill="#9D9C9B" d="M509.643 250.118C512.198 249.815 514.278 249.661 516.821 250.286C521.91 251.577 526.265 254.863 528.905 259.403C539.712 277.955 508.661 290.446 526.113 319.778C523.479 319.39 520.842 319.026 518.202 318.685C513.049 317.93 504.447 318.64 499.345 319.185C501.562 314.772 503.388 311.061 504.611 306.255C509.804 285.85 480.043 262.863 509.643 250.118Z"/><path d="M510.05 255.582C510.867 255.517 511.684 255.467 512.503 255.431C524.69 254.97 529.551 266.414 525.014 276.503C522.963 281.066 520.777 283.433 517.359 286.927C522.837 277.609 530.253 264.945 517.104 257.975C511.635 256.787 507.076 257.802 504.25 263.24C499.607 272.174 506.833 279.095 509.279 287.087C506.942 283.962 503.437 279.531 501.858 276.025C500.05 272.07 499.916 267.552 501.485 263.496C503.265 259.028 505.903 257.344 510.05 255.582Z"/><path fill="#9D9C9B" d="M501.319 705.602C509.204 707.54 519.695 706.879 527.635 705.826C523.56 713.315 520.376 721.879 521.659 730.472C524.008 746.199 539.497 756.779 523.895 771.811C518.709 775.258 513.992 776.736 507.753 774.704C503.198 773.245 499.461 769.946 497.449 765.607C488.919 747.288 516.531 737.788 501.319 705.602Z"/><path d="M507.237 739.889C509.202 741.893 499.646 753.095 503.656 761.49C507.995 770.573 518.871 770.628 523.035 761.49C526.202 754.539 521.312 745.939 518.509 739.156C520.484 741.434 520.537 741.719 522.137 744.256C523.534 746.648 524.836 748.708 525.709 751.391C528.095 758.72 524.531 768.099 516.498 769.951C512.798 770.802 508.912 770.141 505.702 768.114C494.962 761.361 502.189 747.543 507.237 739.889Z"/><path fill="#9D9C9B" d="M343.691 318.078C361.75 316.266 364.477 328.973 369.246 342.139C373.179 352.997 382.479 359.265 392.959 363.434C387.199 367.887 382.266 371.687 377.122 376.904L374.07 380.073C362.493 347.849 338.158 358.722 331.187 340.808C329.561 336.734 329.69 332.169 331.543 328.193C334.135 322.657 338.295 320.12 343.691 318.078Z"/><path d="M351.334 350.819C347.834 349.543 345.276 349.307 341.832 347.269C338.752 345.445 336.53 342.465 335.659 338.994C334.776 335.469 335.459 330.949 337.353 327.823C339.001 325.125 341.665 323.203 344.745 322.491C358.245 319.485 364.172 333.252 364.457 343.79C364.524 346.256 362.977 343.685 362.661 341.998C361.98 338.356 361.105 333.845 359.399 330.6C353.91 322.273 339.828 321.705 337.501 332.748C335.278 343.298 343.926 347.178 352.297 349.768L351.334 350.819Z"/><path fill="#484743" d="M352.297 349.768C356.655 350.513 354.751 351.239 351.334 350.819L352.297 349.768Z"/><path fill="#9D9C9B" d="M326.122 495.172C328.513 495.555 328.275 496.074 327.832 498.93C326.442 507.911 328.519 517.996 328.252 526.659C327.956 526.998 327.365 527.025 326.953 527.081L326.228 527.199C324.193 524.747 323.445 522.783 323.039 519.499C322.438 514.641 321.476 498.416 325.512 495.613L326.122 495.172Z"/><path fill="#9D9C9B" d="M507.319 320.708C513.387 320.041 522.213 321.366 528.243 322.437C528.659 322.511 531.57 326.693 527.507 325.548C526.554 325.279 521.344 324.96 520.037 324.876C511.837 324.438 504.455 325.026 496.36 325.761C495 325.885 496.571 320.693 499.747 321.55C499.59 321.508 506.546 320.786 507.319 320.708Z"/><path fill="#9D9C9B" d="M374.976 382.02C378.905 379.931 395.227 359.849 399.606 364.808C400.149 363.42 377.433 385.068 375.085 388.4C374.885 388.754 373.516 389.977 373.307 390.086L373.316 390.148L373.285 390.189C372.621 390.141 372.954 380.869 374.976 382.02Z"/><path d="M375.085 388.4C374.885 388.754 373.516 389.977 373.307 390.086L373.316 390.148L373.285 390.189C372.621 390.141 372.954 380.869 374.976 382.02C374.214 384.371 374.03 385.943 375.085 388.4Z"/><path fill="#9D9C9B" d="M373.448 637.158C375.258 638.079 382.521 646.328 384.865 648.639C388.104 651.853 391.516 654.889 395.086 657.732C396.697 659.004 398.052 659.149 397.727 660.876C397.705 660.88 395.862 661.261 395.819 661.259C393.718 661.181 388.839 657.104 387.277 655.953C381.733 651.872 377.615 646.293 373.095 641.21C372.512 640.549 373.261 637.913 373.448 637.158Z"/><path fill="#9D9C9B" d="M529.797 699.713C532.568 699.159 529.35 702.954 529.229 702.989C519.936 705.629 508.366 704.722 498.861 703.188C494.703 699.383 499.306 700.276 501.999 700.539C511.578 701.475 520.271 700.916 529.797 699.713Z"/><path fill="#9D9C9B" d="M624.435 363.794C631.653 362.897 628.883 363.594 635.212 367.797C641.193 371.77 645.162 377.627 650.195 382.623C650.71 383.135 649.868 385.66 649.748 386.19C650.694 386.8 623.22 361.989 624.435 363.794Z"/><path fill="#9D9C9B" d="M698.513 494.219C703.989 495.037 701.98 495.517 702.642 500.741C703.782 509.724 703.268 517.077 701.07 525.808C697.94 528.346 699.164 525.169 699.34 522.237C699.911 512.751 699.551 503.655 698.513 494.219Z"/><path fill="#A29281" d="M651.209 636.88C653.154 640.103 652.242 640.318 649.799 643.185C644.454 649.457 638.273 654.968 631.722 659.936C631.361 660.21 629.086 660.286 628.576 660.331C628.189 660.109 627.705 659.97 627.599 659.506C627.75 659.09 632.834 654.956 633.67 654.212C639.842 648.775 645.698 642.988 651.209 636.88Z"/><path fill="#CCC5BA" d="M850.896 383.777C852.427 384.171 853.821 384.975 855.345 385.529C853.35 385.395 850.825 385.242 848.887 384.759L850.896 383.777Z"/><path fill="#CCC5BA" d="M587.418 833.173C587.592 837.409 586.627 834.659 586.059 832.754L587.418 833.173Z"/><path fill="#CCC5BA" d="M107.264 717.521L108.741 717.036C108.816 719.752 108.735 720.552 107.264 717.521Z"/><path fill="#CCC5BA" d="M350.293 265.955C350.952 266.201 352.118 266.487 352.6 267.067L352.616 267.183C352.295 267.598 351.09 267.539 350.639 267.576L350.293 265.955Z"/><path fill="#332E2D" d="M332.168 256.636C332.825 255.961 332.871 255.757 333.699 255.415C333.723 256.006 333.744 256.597 333.763 257.188L332.168 256.636Z"/></svg>